<?xml version="1.0" encoding="UTF-8" standalone="no"?><!-- Generator: Gravit.io --><svg xmlns="http://www.w3.org/2000/svg" xmlns:xlink="http://www.w3.org/1999/xlink" style="isolation:isolate" viewBox="0 0 312.41 278.441" width="312.41pt" height="278.441pt"><defs><clipPath id="_clipPath_NGLs6ZUrFA3UH8mDCUzwMj9lrGDdXfb4"><rect width="312.41" height="278.441"/></clipPath></defs><g clip-path="url(#_clipPath_NGLs6ZUrFA3UH8mDCUzwMj9lrGDdXfb4)"><g><g><mask id="_mask_Rc8fOYok97CCT0ICzgKt6yIWzKIMaYUa"><polygon points="312.41,142.174,234.878,277.782,78.673,278.441,0,143.493,77.532,7.885,233.737,7.226" fill="white" stroke="none"/></mask><polygon points="312.41,142.174,234.878,277.782,78.673,278.441,0,143.493,77.532,7.885,233.737,7.226" fill="none"/><polygon points="312.41,142.174,234.878,277.782,78.673,278.441,0,143.493,77.532,7.885,233.737,7.226" fill="none" mask="url(#_mask_Rc8fOYok97CCT0ICzgKt6yIWzKIMaYUa)" vector-effect="non-scaling-stroke" stroke-width="4" stroke="rgb(255,255,255)" stroke-linejoin="miter" stroke-linecap="square" stroke-miterlimit="3"/></g><g><path d=" M 167.499 270.561 L 149.788 262.464 L 150.779 236.702 L 128.445 195.965 L 140.682 197.104 L 147.796 187.703 L 151.78 193.97 L 153.488 189.412 L 156.334 125.704 Q 148.568 109.942 136.982 104.623 Q 125.396 99.304 122.435 99.746 Q 119.204 96.838 115.561 90.094 Q 111.916 83.347 92.794 36.874 L 135.482 49.409 L 139.466 53.112 L 168.001 43.996 L 168.001 42.287 L 166.786 42.287 L 172.477 3 L 216.018 55.702 Q 210.042 69.661 208.334 69.661 C 206.627 69.661 191.681 98.519 190.121 111.952 C 187.413 131.849 187.011 144.969 186.629 149.027 L 188.698 229.658 L 191.829 243.617 L 186.422 265.448 L 172.477 258.042 L 167.499 270.561 Z " fill="none" vector-effect="non-scaling-stroke" stroke-width="2" stroke="rgb(255,255,255)" stroke-linejoin="miter" stroke-linecap="square" stroke-miterlimit="3"/><g><path d=" M 119.133 85.861 L 115.738 90.815 L 105.183 67.771 L 92.794 36.874 L 132.801 48.326 L 135.481 50.241 L 119.133 85.861 Z " fill="none" vector-effect="non-scaling-stroke" stroke-width="1" stroke="rgb(255,255,255)" stroke-linejoin="miter" stroke-linecap="square" stroke-miterlimit="3"/></g><g filter="url(#tLJGTBM1dvhi0iRkoDf4iO7NFCV4GXFr)"><path d=" M 212.704 52.478 L 166.825 42.164 L 172.151 3.065 L 212.704 52.478 Z " fill="none" vector-effect="non-scaling-stroke" stroke-width="1" stroke="rgb(255,255,255)" stroke-linejoin="miter" stroke-linecap="square" stroke-miterlimit="3"/></g><defs><filter id="tLJGTBM1dvhi0iRkoDf4iO7NFCV4GXFr" x="-200%" y="-200%" width="400%" height="400%" filterUnits="objectBoundingBox" color-interpolation-filters="sRGB"><feGaussianBlur xmlns="http://www.w3.org/2000/svg" stdDeviation="0"/></filter></defs><g><path d=" M 121.586 96.161 L 170.686 75.436 L 172.151 96.161 L 121.586 96.161 Z " fill="none" vector-effect="non-scaling-stroke" stroke-width="1" stroke="rgb(255,255,255)" stroke-linejoin="miter" stroke-linecap="square" stroke-miterlimit="3"/><path d=" M 214.062 57.275 L 170.686 75.436 L 172.151 96.161 L 199.335 75.436 L 208.513 67.771 L 214.062 57.275 Z " fill="none" vector-effect="non-scaling-stroke" stroke-width="1" stroke="rgb(255,255,255)" stroke-linejoin="miter" stroke-linecap="square" stroke-miterlimit="3"/></g><g><path d=" M 167.833 72.411 L 156.981 47.75 L 155.54 47.668 L 167.833 72.411 Z " fill="rgb(255,255,255)"/></g><g><path d=" M 206.961 69.467 L 168.905 107.038 L 172.151 111.952 L 170.686 173.68 L 170.686 212.954 L 172.477 253.045 L 172.877 258.533 L 177.474 261.157 L 183.002 264.189 L 178.52 158.277 L 179.8 122.769 C 180.845 120.011 180.302 116.142 181.392 113.475 C 182.483 110.808 183.247 105.371 184.38 102.792 L 206.961 69.467 Z " fill="none" vector-effect="non-scaling-stroke" stroke-width="1" stroke="rgb(255,255,255)" stroke-linejoin="miter" stroke-linecap="square" stroke-miterlimit="3"/><path d=" M 164.083 110.149 L 170.392 114.155 L 167.907 271.598 L 148.953 263.985 L 155.494 126.508 Q 153.666 116.84 147.796 111.6 L 140.682 105.555 L 164.083 110.149 Z " fill="none" vector-effect="non-scaling-stroke" stroke-width="2" stroke="rgb(255,255,255)" stroke-linejoin="miter" stroke-linecap="square" stroke-miterlimit="3"/></g></g></g><line x1="19.41" y1="151.441" x2="89.41" y2="271.441" vector-effect="non-scaling-stroke" stroke-width="1" stroke="rgb(255,255,255)" stroke-linejoin="miter" stroke-linecap="square" stroke-miterlimit="3"/></g></svg>