<?xml version="1.0" encoding="UTF-8" standalone="no"?><!-- Generator: Gravit.io --><svg xmlns="http://www.w3.org/2000/svg" xmlns:xlink="http://www.w3.org/1999/xlink" style="isolation:isolate" viewBox="0 0 166.923 355.417" width="166.923pt" height="355.417pt"><defs><clipPath id="_clipPath_h8StjSLtNF0HD0XvPrqXo4S5x5fahSf1"><rect width="166.923" height="355.417"/></clipPath></defs><g clip-path="url(#_clipPath_h8StjSLtNF0HD0XvPrqXo4S5x5fahSf1)"><g><defs><filter id="iGiLPjT9Il6RvqDd7znbgPS42A3TzPxb" x="-200%" y="-200%" width="400%" height="400%" filterUnits="objectBoundingBox" color-interpolation-filters="sRGB"><feOffset xmlns="http://www.w3.org/2000/svg" in="SourceGraphic" dx="0" dy="0"/><feGaussianBlur xmlns="http://www.w3.org/2000/svg" stdDeviation="2.146804531419514" result="pf_100_offsetBlur"/><feComposite xmlns="http://www.w3.org/2000/svg" in="SourceGraphic" in2="pf_100_offsetBlur" result="pf_100_inverse" operator="out"/><feFlood xmlns="http://www.w3.org/2000/svg" flood-color="#000000" flood-opacity="0.5" result="pf_100_color"/><feComposite xmlns="http://www.w3.org/2000/svg" in="pf_100_color" in2="pf_100_inverse" operator="in" result="pf_100_shadow"/><feComposite xmlns="http://www.w3.org/2000/svg" in="pf_100_shadow" in2="SourceGraphic" operator="over"/></filter></defs><g filter="url(#iGiLPjT9Il6RvqDd7znbgPS42A3TzPxb)"><path d=" M 100.56 352.417 L 77.43 341.843 L 78.724 308.199 L 49.557 254.999 L 65.538 256.487 L 74.829 244.21 L 80.032 252.395 L 82.262 246.443 L 85.978 163.243 Q 76.499 141.663 60.706 135.713 Q 44.914 129.764 41.709 129.344 Q 37.49 125.547 32.732 116.74 Q 27.971 107.928 3 47.238 L 58.747 63.607 L 63.95 68.443 L 101.216 56.538 L 101.216 54.306 L 99.628 54.306 L 107.061 3 L 163.923 71.825 Q 156.118 90.055 153.888 90.055 C 151.658 90.055 132.14 127.742 130.103 145.284 C 126.566 171.269 126.041 188.402 125.542 193.702 L 128.245 299 L 132.333 317.23 L 125.271 345.741 L 107.061 336.068 L 100.56 352.417 Z " fill="rgb(186,7,5)" vector-effect="non-scaling-stroke" stroke-width="2" stroke="rgb(186,7,5)" stroke-linejoin="miter" stroke-linecap="square" stroke-miterlimit="3"/></g><g><defs><filter id="Hcp4SzWNNIUm4INj25JKHlYi1k0ajfM1" x="-200%" y="-200%" width="400%" height="400%" filterUnits="objectBoundingBox" color-interpolation-filters="sRGB"><feOffset xmlns="http://www.w3.org/2000/svg" in="SourceGraphic" dx="-7" dy="0"/><feGaussianBlur xmlns="http://www.w3.org/2000/svg" stdDeviation="5.152330875406834" result="pf_100_offsetBlur"/><feComposite xmlns="http://www.w3.org/2000/svg" in="SourceGraphic" in2="pf_100_offsetBlur" result="pf_100_inverse" operator="out"/><feFlood xmlns="http://www.w3.org/2000/svg" flood-color="#000000" flood-opacity="0.3" result="pf_100_color"/><feComposite xmlns="http://www.w3.org/2000/svg" in="pf_100_color" in2="pf_100_inverse" operator="in" result="pf_100_shadow"/><feComposite xmlns="http://www.w3.org/2000/svg" in="pf_100_shadow" in2="SourceGraphic" operator="over"/></filter></defs><g filter="url(#Hcp4SzWNNIUm4INj25JKHlYi1k0ajfM1)"><path d=" M 80.288 293.581 L 65.041 256.487 L 74.537 243.136 L 82.262 254.494 L 80.288 293.581 Z " fill="rgb(138,6,4)"/></g><defs><filter id="1Zs8Z3iTTYioQYXD5soyiB4f2HtoYy33" x="-200%" y="-200%" width="400%" height="400%" filterUnits="objectBoundingBox" color-interpolation-filters="sRGB"><feOffset xmlns="http://www.w3.org/2000/svg" in="SourceGraphic" dx="0" dy="-5"/><feGaussianBlur xmlns="http://www.w3.org/2000/svg" stdDeviation="2.146804531419514" result="pf_100_offsetBlur"/><feComposite xmlns="http://www.w3.org/2000/svg" in="SourceGraphic" in2="pf_100_offsetBlur" result="pf_100_inverse" operator="out"/><feFlood xmlns="http://www.w3.org/2000/svg" flood-color="#000000" flood-opacity="0.3" result="pf_100_color"/><feComposite xmlns="http://www.w3.org/2000/svg" in="pf_100_color" in2="pf_100_inverse" operator="in" result="pf_100_shadow"/><feComposite xmlns="http://www.w3.org/2000/svg" in="pf_100_shadow" in2="SourceGraphic" operator="over"/></filter></defs><g filter="url(#1Zs8Z3iTTYioQYXD5soyiB4f2HtoYy33)"><path d=" M 64.527 285.05 L 49.557 254.494 L 65.041 256.487 L 80.288 293.581 L 78.22 311.277 L 64.527 285.05 Z " fill="rgb(157,8,5)"/></g><path d=" M 79.735 315.488 L 65.041 285.772 L 74.664 294.143 L 80.288 303.346 L 79.735 315.488 Z " fill="rgb(111,13,2)"/></g><g><defs><filter id="YHPLjdtNdyLNwXT6A0sFS8stdGKHzsLJ" x="-200%" y="-200%" width="400%" height="400%" filterUnits="objectBoundingBox" color-interpolation-filters="sRGB"><feGaussianBlur xmlns="http://www.w3.org/2000/svg" stdDeviation="0.2576165437703417" result="_out_N0kKUawpdig9CaAOQQVvjd3ebYlEBgdq"/><feGaussianBlur xmlns="http://www.w3.org/2000/svg" stdDeviation="0" in="_out_N0kKUawpdig9CaAOQQVvjd3ebYlEBgdq"/></filter></defs><g filter="url(#YHPLjdtNdyLNwXT6A0sFS8stdGKHzsLJ)"><linearGradient id="_lgradient_63" x1="1.1149363457055774" y1="-0.08081979891724739" x2="0.19974896897973882" y2="0.8592420726991483" gradientTransform="matrix(26.497,0,0,49.197,36.828,69.048)" gradientUnits="userSpaceOnUse"><stop offset="0%" stop-opacity="1" style="stop-color:rgb(190,7,7)"/><stop offset="100%" stop-opacity="1" style="stop-color:rgb(182,7,0)"/></linearGradient><path d=" M 40.601 118.245 L 63.325 69.048 L 36.828 117.681 L 40.601 118.245 Z " fill="url(#_lgradient_63)"/></g><linearGradient id="_lgradient_64" x1="1.1387501267160418" y1="-0.14668227116359794" x2="0.20720236371052714" y2="0.7855168064441025" gradientTransform="matrix(24.346,0,0,46.867,38.979,65.569)" gradientUnits="userSpaceOnUse"><stop offset="0.8333333333333334%" stop-opacity="1" style="stop-color:rgb(215,93,93)"/><stop offset="98.33333333333333%" stop-opacity="1" style="stop-color:rgb(181,1,1)"/></linearGradient><path d=" M 38.979 112.436 L 63.325 67.615 L 61.311 65.569 L 38.979 112.436 Z " fill="url(#_lgradient_64)"/><path d=" M 37.397 111.211 L 32.963 117.681 L 19.179 87.587 L 3 47.238 L 55.247 62.193 L 58.747 64.693 L 37.397 111.211 Z " fill="rgb(186,7,5)"/></g><g filter="url(#8r4jfbDejMDm5xpWzYl2V1OCoXFp1irr)"><path d=" M 159.595 67.615 L 99.679 54.146 L 106.635 3.085 L 159.595 67.615 Z " fill="rgb(198,27,8)"/><defs><filter id="7T2NhiNr8iqVqD5P7mNHYwc5AxrAYJNn" x="-200%" y="-200%" width="400%" height="400%" filterUnits="objectBoundingBox" color-interpolation-filters="sRGB"><feGaussianBlur xmlns="http://www.w3.org/2000/svg" stdDeviation="0"/></filter></defs><g filter="url(#7T2NhiNr8iqVqD5P7mNHYwc5AxrAYJNn)"><path d=" M 100.788 54.551 L 100.997 56.226 L 162.762 71.806 L 159.595 67.615 L 100.788 54.551 Z " fill="rgb(136,35,26)"/></g><defs><filter id="7IfYQQ1EAnSPfulwXpYEVyU0KzSseBsx" x="-200%" y="-200%" width="400%" height="400%" filterUnits="objectBoundingBox" color-interpolation-filters="sRGB"><feGaussianBlur xmlns="http://www.w3.org/2000/svg" stdDeviation="0"/></filter></defs><g filter="url(#7IfYQQ1EAnSPfulwXpYEVyU0KzSseBsx)"><path d=" M 100.997 56.659 L 96.151 58.071 L 95.574 62.193 L 150.941 77.409 L 159.595 74.993 L 162.762 71.806 L 100.997 56.659 Z " fill="rgb(189,17,6)"/></g></g><defs><filter id="8r4jfbDejMDm5xpWzYl2V1OCoXFp1irr" x="-200%" y="-200%" width="400%" height="400%" filterUnits="objectBoundingBox" color-interpolation-filters="sRGB"><feGaussianBlur xmlns="http://www.w3.org/2000/svg" stdDeviation="0"/></filter></defs><g><path d=" M 40.601 124.662 L 104.722 97.597 L 106.635 124.662 L 40.601 124.662 Z " fill="rgb(160,7,5)"/><path d=" M 161.369 73.88 L 104.722 97.597 L 106.635 124.662 L 142.136 97.597 L 154.121 87.587 L 161.369 73.88 Z " fill="rgb(160,7,5)"/></g><g><defs><filter id="gZUYHXB3M5wsocnc7COfzGoWo4GcDfaT" x="-200%" y="-200%" width="400%" height="400%" filterUnits="objectBoundingBox" color-interpolation-filters="sRGB"><feGaussianBlur xmlns="http://www.w3.org/2000/svg" stdDeviation="0.7299135406826348"/></filter></defs><g filter="url(#gZUYHXB3M5wsocnc7COfzGoWo4GcDfaT)"><linearGradient id="_lgradient_65" x1="1.1403480868440226" y1="-0.15349115699666652" x2="-0.8247248692603555" y2="1.843089526778647" gradientTransform="matrix(10.786,-7.921,14.03,19.144,92.606,105.518)" gradientUnits="userSpaceOnUse"><stop offset="0.8333333333333334%" stop-opacity="1" style="stop-color:rgb(249,138,138)"/><stop offset="98.33333333333333%" stop-opacity="1" style="stop-color:rgb(181,1,1)"/></linearGradient><path d=" M 106.635 124.662 L 104.004 98.433 L 102.5 98.252 L 106.635 124.662 Z " fill="url(#_lgradient_65)"/></g><linearGradient id="_lgradient_66" x1="1.1387501267160418" y1="-0.14668227116359794" x2="0.20720236371052714" y2="0.7855168064441025" gradientTransform="matrix(9.614,-10.614,24.873,22.577,76.124,71.069)" gradientUnits="userSpaceOnUse"><stop offset="0.8333333333333334%" stop-opacity="1" style="stop-color:rgb(215,93,93)"/><stop offset="98.33333333333333%" stop-opacity="1" style="stop-color:rgb(181,1,1)"/></linearGradient><path d=" M 100.996 93.646 L 86.824 61.441 L 84.942 61.333 L 100.996 93.646 Z " fill="url(#_lgradient_66)"/></g><g><path d=" M 40.601 124.662 L 79.725 127.038 L 91.617 129.642 L 100.909 133.735 L 102.395 137.827 L 40.601 124.662 Z " fill="rgb(111,13,2)"/><path d=" M 104.722 133.735 L 106.635 127.038 L 150.777 89.801 L 104.722 137.827 L 102.395 137.827 L 100.909 133.735 L 104.722 133.735 Z " fill="rgb(111,13,2)"/></g><g><path d=" M 152.094 89.801 L 102.395 138.867 L 106.635 145.284 L 104.722 225.896 L 104.722 277.186 L 107.061 329.542 L 107.582 336.709 L 113.587 340.136 L 120.805 344.095 L 114.952 205.781 L 116.624 159.411 C 117.988 155.809 117.279 150.756 118.703 147.273 C 120.127 143.79 121.126 136.69 122.605 133.322 L 152.094 89.801 Z " fill="rgb(138,6,4)"/><defs><filter id="cyO1UYv5ebQhCDy8jaNQJWETppDnxaml" x="-200%" y="-200%" width="400%" height="400%" filterUnits="objectBoundingBox" color-interpolation-filters="sRGB"><feOffset xmlns="http://www.w3.org/2000/svg" in="SourceGraphic" dx="-5" dy="0"/><feGaussianBlur xmlns="http://www.w3.org/2000/svg" stdDeviation="2.576165437703417" result="pf_100_offsetBlur"/><feComposite xmlns="http://www.w3.org/2000/svg" in="SourceGraphic" in2="pf_100_offsetBlur" result="pf_100_inverse" operator="out"/><feFlood xmlns="http://www.w3.org/2000/svg" flood-color="#512727" flood-opacity="0.4" result="pf_100_color"/><feComposite xmlns="http://www.w3.org/2000/svg" in="pf_100_color" in2="pf_100_inverse" operator="in" result="pf_100_shadow"/><feComposite xmlns="http://www.w3.org/2000/svg" in="pf_100_shadow" in2="SourceGraphic" operator="over"/></filter></defs><g filter="url(#cyO1UYv5ebQhCDy8jaNQJWETppDnxaml)"><path d=" M 151.701 90.121 Q 145.922 103.683 140.437 112.436 C 129.167 130.42 125.871 140.898 125.271 143.654 L 123.836 151.273 L 122.605 162.153 L 120.414 197.014 L 120.414 254.999 L 123.836 306.086 L 125.542 346.532 L 120.805 344.095 Q 114.861 257.143 114.522 254.746 L 114.522 196.202 L 115.917 162.153 L 117.3 151.273 L 118.703 143.179 L 120.414 136.181 L 122.605 130.902 L 151.701 90.121 Z " fill="rgb(138,6,4)"/></g><path d=" M 96.098 142.929 L 104.338 148.161 L 101.093 353.772 L 76.34 343.83 L 84.882 164.293 Q 82.494 151.668 74.829 144.825 L 65.538 136.931 L 96.098 142.929 Z " fill="rgb(157,8,5)"/></g><g><path d=" M 83.847 156.767 Q 84.86 158.627 88.678 167.927 L 96.483 182.437 L 103.338 149.394 L 93.509 154.906 L 83.847 156.767 Z " fill="rgb(111,13,2)"/><defs><filter id="ahhuCT4qDUdeHkS7LVtGEPlKUJlAYWlP" x="-200%" y="-200%" width="400%" height="400%" filterUnits="objectBoundingBox" color-interpolation-filters="sRGB"><feOffset xmlns="http://www.w3.org/2000/svg" in="SourceGraphic" dx="-8" dy="14"/><feGaussianBlur xmlns="http://www.w3.org/2000/svg" stdDeviation="7.299135406826348" result="pf_100_offsetBlur"/><feComposite xmlns="http://www.w3.org/2000/svg" in="SourceGraphic" in2="pf_100_offsetBlur" result="pf_100_inverse" operator="out"/><feFlood xmlns="http://www.w3.org/2000/svg" flood-color="#512222" flood-opacity="0.4" result="pf_100_color"/><feComposite xmlns="http://www.w3.org/2000/svg" in="pf_100_color" in2="pf_100_inverse" operator="in" result="pf_100_shadow"/><feComposite xmlns="http://www.w3.org/2000/svg" in="pf_100_shadow" in2="SourceGraphic" operator="over"/></filter></defs><g filter="url(#ahhuCT4qDUdeHkS7LVtGEPlKUJlAYWlP)"><path d=" M 93.509 154.906 L 103.338 149.394 L 96.483 182.437 L 95.257 158.205 L 93.509 154.906 Z " fill="rgb(111,13,2)"/></g></g></g></g></svg>