<?xml version="1.0" encoding="UTF-8" standalone="no"?><!-- Generator: Gravit.io --><svg xmlns="http://www.w3.org/2000/svg" xmlns:xlink="http://www.w3.org/1999/xlink" style="isolation:isolate" viewBox="0 0 313 313" width="313pt" height="313pt"><defs><clipPath id="_clipPath_mkTx2giKnAW32Jaa7OhmuKvOXpHCktAN"><rect width="313" height="313"/></clipPath></defs><g clip-path="url(#_clipPath_mkTx2giKnAW32Jaa7OhmuKvOXpHCktAN)"><g><mask id="_mask_1mFMZUMaZdVgn1iJ1InzVYUzoXGw6KOn"><polygon points="312.41,155.734,234.878,291.341,78.673,292,0,157.052,77.532,21.445,233.737,20.786" fill="white" stroke="none"/></mask><polygon points="312.41,155.734,234.878,291.341,78.673,292,0,157.052,77.532,21.445,233.737,20.786" fill="rgb(255,255,255)"/><polygon points="312.41,155.734,234.878,291.341,78.673,292,0,157.052,77.532,21.445,233.737,20.786" fill="rgb(255,255,255)" mask="url(#_mask_1mFMZUMaZdVgn1iJ1InzVYUzoXGw6KOn)" vector-effect="non-scaling-stroke" stroke-width="4" stroke="rgb(30,120,255)" stroke-linejoin="miter" stroke-linecap="square" stroke-miterlimit="3"/><defs><filter id="SD9vSrGiMyr8BKfvGAk5DAwD4MRmDNS6" x="-200%" y="-200%" width="400%" height="400%" filterUnits="objectBoundingBox" color-interpolation-filters="sRGB"><feOffset xmlns="http://www.w3.org/2000/svg" in="SourceGraphic" dx="0" dy="0"/><feGaussianBlur xmlns="http://www.w3.org/2000/svg" stdDeviation="2.146804531419514" result="pf_100_offsetBlur"/><feComposite xmlns="http://www.w3.org/2000/svg" in="SourceGraphic" in2="pf_100_offsetBlur" result="pf_100_inverse" operator="out"/><feFlood xmlns="http://www.w3.org/2000/svg" flood-color="#000000" flood-opacity="0.5" result="pf_100_color"/><feComposite xmlns="http://www.w3.org/2000/svg" in="pf_100_color" in2="pf_100_inverse" operator="in" result="pf_100_shadow"/><feComposite xmlns="http://www.w3.org/2000/svg" in="pf_100_shadow" in2="SourceGraphic" operator="over"/></filter></defs><g filter="url(#SD9vSrGiMyr8BKfvGAk5DAwD4MRmDNS6)"><path d=" M 168.594 287.113 L 149.02 279.574 L 150.084 252.907 L 126.08 210.74 L 139.232 211.919 L 146.879 202.188 L 151.161 208.676 L 152.996 203.958 L 156.054 138.012 Q 150.296 121.181 135.256 116.191 Q 120.216 111.202 120.492 113.433 Q 116.516 107.934 112.234 101.152 Q 107.952 94.37 87.765 46.064 L 133.643 59.038 L 137.925 62.872 L 168.594 53.436 L 168.594 51.666 L 167.287 51.666 L 173.405 11 L 220.2 65.552 Q 213.777 80.001 211.942 80.001 C 210.107 80.001 194.044 109.873 192.368 123.777 C 189.457 144.373 189.025 157.954 188.614 162.155 L 190.838 245.616 L 194.203 260.065 L 188.391 282.663 L 173.405 274.996 L 168.594 287.113 Z " fill="rgb(186,7,5)" vector-effect="non-scaling-stroke" stroke-width="2" stroke="rgb(186,7,5)" stroke-linejoin="miter" stroke-linecap="square" stroke-miterlimit="3"/></g><g><defs><filter id="5tMi4aELNkCrdJjmpPowVQqCi7gsLT3C" x="-200%" y="-200%" width="400%" height="400%" filterUnits="objectBoundingBox" color-interpolation-filters="sRGB"><feOffset xmlns="http://www.w3.org/2000/svg" in="SourceGraphic" dx="-7" dy="0"/><feGaussianBlur xmlns="http://www.w3.org/2000/svg" stdDeviation="5.152330875406834" result="pf_100_offsetBlur"/><feComposite xmlns="http://www.w3.org/2000/svg" in="SourceGraphic" in2="pf_100_offsetBlur" result="pf_100_inverse" operator="out"/><feFlood xmlns="http://www.w3.org/2000/svg" flood-color="#000000" flood-opacity="0.3" result="pf_100_color"/><feComposite xmlns="http://www.w3.org/2000/svg" in="pf_100_color" in2="pf_100_inverse" operator="in" result="pf_100_shadow"/><feComposite xmlns="http://www.w3.org/2000/svg" in="pf_100_shadow" in2="SourceGraphic" operator="over"/></filter></defs><g filter="url(#5tMi4aELNkCrdJjmpPowVQqCi7gsLT3C)"><path d=" M 151.372 241.32 L 138.823 211.919 L 146.638 201.337 L 152.996 210.34 L 151.372 241.32 Z " fill="rgb(138,6,4)"/></g><defs><filter id="rgCL721LsR284vgKcdWYFwTvqZftJnWL" x="-200%" y="-200%" width="400%" height="400%" filterUnits="objectBoundingBox" color-interpolation-filters="sRGB"><feOffset xmlns="http://www.w3.org/2000/svg" in="SourceGraphic" dx="0" dy="-5"/><feGaussianBlur xmlns="http://www.w3.org/2000/svg" stdDeviation="2.146804531419514" result="pf_100_offsetBlur"/><feComposite xmlns="http://www.w3.org/2000/svg" in="SourceGraphic" in2="pf_100_offsetBlur" result="pf_100_inverse" operator="out"/><feFlood xmlns="http://www.w3.org/2000/svg" flood-color="#000000" flood-opacity="0.3" result="pf_100_color"/><feComposite xmlns="http://www.w3.org/2000/svg" in="pf_100_color" in2="pf_100_inverse" operator="in" result="pf_100_shadow"/><feComposite xmlns="http://www.w3.org/2000/svg" in="pf_100_shadow" in2="SourceGraphic" operator="over"/></filter></defs><g filter="url(#rgCL721LsR284vgKcdWYFwTvqZftJnWL)"><path d=" M 138.401 234.559 L 126.08 210.34 L 138.823 211.919 L 151.372 241.32 L 149.67 255.347 L 138.401 234.559 Z " fill="rgb(157,8,5)"/></g><path d=" M 150.917 258.684 L 138.823 235.131 L 146.743 241.766 L 151.372 249.06 L 150.917 258.684 Z " fill="rgb(111,13,2)"/></g><g><linearGradient id="_lgradient_12" x1="1.1149363457055774" y1="-0.08081979891724739" x2="0.19974896897973882" y2="0.8592420726991483" gradientTransform="matrix(21.806,0,0,38.994,115.605,63.351)" gradientUnits="userSpaceOnUse"><stop offset="0%" stop-opacity="1" style="stop-color:rgb(190,7,7)"/><stop offset="100%" stop-opacity="1" style="stop-color:rgb(182,7,0)"/></linearGradient><path d=" M 118.71 102.345 L 137.411 63.351 L 115.605 101.898 L 118.71 102.345 Z " fill="url(#_lgradient_12)"/><linearGradient id="_lgradient_13" x1="1.1387501267160418" y1="-0.14668227116359794" x2="0.20720236371052714" y2="0.7855168064441025" gradientTransform="matrix(20.037,0,0,37.148,117.375,60.593)" gradientUnits="userSpaceOnUse"><stop offset="0.8333333333333334%" stop-opacity="1" style="stop-color:rgb(215,93,93)"/><stop offset="98.33333333333333%" stop-opacity="1" style="stop-color:rgb(181,1,1)"/></linearGradient><path d=" M 117.375 97.741 L 137.411 62.215 L 135.754 60.593 L 117.375 97.741 Z " fill="url(#_lgradient_13)"/><path d=" M 116.073 96.77 L 112.424 101.899 L 101.08 78.045 L 87.765 46.064 L 130.763 57.917 L 133.643 59.899 L 116.073 96.77 Z " fill="rgb(186,7,5)"/></g><g filter="url(#AsAlq5Zw3blBgrEWmWDQ5hs6RZRC3k4z)"><path d=" M 216.639 62.215 L 167.329 51.539 L 173.054 11.067 L 216.639 62.215 Z " fill="rgb(198,27,8)"/><defs><filter id="w0fHSWprAlXbIeQ8RNtDtgr66hBOEcR9" x="-200%" y="-200%" width="400%" height="400%" filterUnits="objectBoundingBox" color-interpolation-filters="sRGB"><feGaussianBlur xmlns="http://www.w3.org/2000/svg" stdDeviation="0"/></filter></defs><g filter="url(#w0fHSWprAlXbIeQ8RNtDtgr66hBOEcR9)"><path d=" M 168.242 51.861 L 168.414 53.188 L 219.245 65.537 L 216.639 62.215 L 168.242 51.861 Z " fill="rgb(136,35,26)"/></g><defs><filter id="Yl33FX9R0YVCShjDmg3yCWo3U31ekNZo" x="-200%" y="-200%" width="400%" height="400%" filterUnits="objectBoundingBox" color-interpolation-filters="sRGB"><feGaussianBlur xmlns="http://www.w3.org/2000/svg" stdDeviation="0"/></filter></defs><g filter="url(#Yl33FX9R0YVCShjDmg3yCWo3U31ekNZo)"><path d=" M 168.414 53.531 L 164.426 54.651 L 163.951 57.917 L 209.517 69.978 L 216.639 68.063 L 219.245 65.537 L 168.414 53.531 Z " fill="rgb(189,17,6)"/></g></g><defs><filter id="AsAlq5Zw3blBgrEWmWDQ5hs6RZRC3k4z" x="-200%" y="-200%" width="400%" height="400%" filterUnits="objectBoundingBox" color-interpolation-filters="sRGB"><feGaussianBlur xmlns="http://www.w3.org/2000/svg" stdDeviation="0"/></filter></defs><g><path d=" M 118.71 107.432 L 171.48 85.979 L 173.054 107.432 L 118.71 107.432 Z " fill="rgb(160,7,5)"/><path d=" M 218.098 67.181 L 171.48 85.979 L 173.054 107.432 L 202.27 85.979 L 212.134 78.045 L 218.098 67.181 Z " fill="rgb(160,7,5)"/></g><g><defs><filter id="MBSoapT3aOE2UDWjRlPHPiIcdbHL70dd" x="-200%" y="-200%" width="400%" height="400%" filterUnits="objectBoundingBox" color-interpolation-filters="sRGB"><feGaussianBlur xmlns="http://www.w3.org/2000/svg" stdDeviation="0.7299135406826348"/></filter></defs><g filter="url(#MBSoapT3aOE2UDWjRlPHPiIcdbHL70dd)"><linearGradient id="_lgradient_14" x1="1.1403480868440226" y1="-0.15349115699666652" x2="-0.8247248692603555" y2="1.843089526778647" gradientTransform="matrix(8.877,-6.278,11.546,15.174,161.508,92.258)" gradientUnits="userSpaceOnUse"><stop offset="0.8333333333333334%" stop-opacity="1" style="stop-color:rgb(249,138,138)"/><stop offset="98.33333333333333%" stop-opacity="1" style="stop-color:rgb(181,1,1)"/></linearGradient><path d=" M 173.054 107.432 L 170.889 86.642 L 169.651 86.499 L 173.054 107.432 Z " fill="url(#_lgradient_14)"/></g><linearGradient id="_lgradient_15" x1="1.1387501267160418" y1="-0.14668227116359794" x2="0.20720236371052714" y2="0.7855168064441025" gradientTransform="matrix(7.912,-8.413,20.47,17.895,147.944,64.953)" gradientUnits="userSpaceOnUse"><stop offset="0.8333333333333334%" stop-opacity="1" style="stop-color:rgb(215,93,93)"/><stop offset="98.33333333333333%" stop-opacity="1" style="stop-color:rgb(181,1,1)"/></linearGradient><path d=" M 168.414 82.848 L 156.75 57.322 L 155.202 57.236 L 168.414 82.848 Z " fill="url(#_lgradient_15)"/></g><g><path d=" M 118.71 107.432 L 150.908 109.315 L 160.695 111.379 L 168.341 114.623 L 169.565 117.867 L 118.71 107.432 Z " fill="rgb(111,13,2)"/><path d=" M 171.48 114.623 L 173.054 109.315 L 209.382 79.8 L 171.48 117.867 L 169.565 117.867 L 168.341 114.623 L 171.48 114.623 Z " fill="rgb(111,13,2)"/></g><g><path d=" M 210.466 79.8 L 169.565 118.691 L 173.054 123.777 L 171.48 187.672 L 171.48 228.325 L 173.405 269.824 L 173.834 275.505 L 178.775 278.221 L 184.716 281.359 L 179.899 171.729 L 181.275 134.974 C 182.398 132.119 181.814 128.114 182.986 125.354 C 184.158 122.593 184.98 116.965 186.197 114.296 L 210.466 79.8 Z " fill="rgb(138,6,4)"/><defs><filter id="GKgbr9iGcQg8D4ojWriXSVFmr12DWZcy" x="-200%" y="-200%" width="400%" height="400%" filterUnits="objectBoundingBox" color-interpolation-filters="sRGB"><feOffset xmlns="http://www.w3.org/2000/svg" in="SourceGraphic" dx="-5" dy="0"/><feGaussianBlur xmlns="http://www.w3.org/2000/svg" stdDeviation="2.576165437703417" result="pf_100_offsetBlur"/><feComposite xmlns="http://www.w3.org/2000/svg" in="SourceGraphic" in2="pf_100_offsetBlur" result="pf_100_inverse" operator="out"/><feFlood xmlns="http://www.w3.org/2000/svg" flood-color="#512727" flood-opacity="0.4" result="pf_100_color"/><feComposite xmlns="http://www.w3.org/2000/svg" in="pf_100_color" in2="pf_100_inverse" operator="in" result="pf_100_shadow"/><feComposite xmlns="http://www.w3.org/2000/svg" in="pf_100_shadow" in2="SourceGraphic" operator="over"/></filter></defs><g filter="url(#GKgbr9iGcQg8D4ojWriXSVFmr12DWZcy)"><path d=" M 210.142 80.054 Q 205.386 90.804 200.872 97.741 C 191.598 111.996 188.885 120.301 188.391 122.485 L 187.21 128.524 L 186.197 137.148 L 184.394 164.78 L 184.394 210.74 L 187.21 251.232 L 188.614 283.29 L 184.716 281.359 Q 179.824 212.439 179.545 210.539 L 179.545 164.136 L 180.693 137.148 L 181.832 128.524 L 182.986 122.109 L 184.394 116.562 L 186.197 112.378 L 210.142 80.054 Z " fill="rgb(138,6,4)"/></g><path d=" M 164.383 121.911 L 171.164 126.057 L 168.457 289 L 148.27 281.149 L 155.152 138.844 Q 153.187 128.837 146.879 123.414 L 139.232 117.156 L 164.383 121.911 Z " fill="rgb(157,8,5)"/></g><g><path d=" M 154.3 132.879 Q 155.134 134.353 158.276 141.725 L 164.699 153.225 L 170.341 127.035 L 162.252 131.404 L 154.3 132.879 Z " fill="rgb(111,13,2)"/><defs><filter id="YnnjdeV1GXtpEsC6kIcQ0IdyyuEa2fGq" x="-200%" y="-200%" width="400%" height="400%" filterUnits="objectBoundingBox" color-interpolation-filters="sRGB"><feOffset xmlns="http://www.w3.org/2000/svg" in="SourceGraphic" dx="-8" dy="14"/><feGaussianBlur xmlns="http://www.w3.org/2000/svg" stdDeviation="7.299135406826348" result="pf_100_offsetBlur"/><feComposite xmlns="http://www.w3.org/2000/svg" in="SourceGraphic" in2="pf_100_offsetBlur" result="pf_100_inverse" operator="out"/><feFlood xmlns="http://www.w3.org/2000/svg" flood-color="#512222" flood-opacity="0.4" result="pf_100_color"/><feComposite xmlns="http://www.w3.org/2000/svg" in="pf_100_color" in2="pf_100_inverse" operator="in" result="pf_100_shadow"/><feComposite xmlns="http://www.w3.org/2000/svg" in="pf_100_shadow" in2="SourceGraphic" operator="over"/></filter></defs><g filter="url(#YnnjdeV1GXtpEsC6kIcQ0IdyyuEa2fGq)"><path d=" M 162.252 131.404 L 170.341 127.035 L 164.699 153.225 L 163.691 134.019 L 162.252 131.404 Z " fill="rgb(111,13,2)"/></g></g></g><line x1="18.41" y1="164.5" x2="88.41" y2="284.5" vector-effect="non-scaling-stroke" stroke-width="1" stroke="rgb(0,187,255)" stroke-linejoin="miter" stroke-linecap="square" stroke-miterlimit="3"/></g></svg>