<?xml version="1.0" encoding="UTF-8" standalone="no"?><!-- Generator: Gravit.io --><svg xmlns="http://www.w3.org/2000/svg" xmlns:xlink="http://www.w3.org/1999/xlink" style="isolation:isolate" viewBox="0 0 1123.41 278.441" width="1123.41pt" height="278.441pt"><defs><clipPath id="_clipPath_GwHg4pyEzL4TdRiHKzXZ4KwuQFWwN9BI"><rect width="1123.41" height="278.441"/></clipPath></defs><g clip-path="url(#_clipPath_GwHg4pyEzL4TdRiHKzXZ4KwuQFWwN9BI)"><g><mask id="_mask_Cv7UOzyhyP6FMq57Xon6oc3FLUjiJmYX" x="-200%" y="-200%" width="400%" height="400%"><rect x="-200%" y="-200%" width="400%" height="400%" style="fill:white;"/><path d=" M 1084.69 206.826 L 1084.69 221.472 L 1057.466 221.472 Q 1040.904 217.296 1040.638 201.485 Q 1040.373 185.675 1040.638 182.256 L 1040.638 144.605 L 1040.638 135.845 L 1056.184 135.845 L 1056.397 206.826 L 1084.69 206.826 Z  M 1108.369 181.292 L 1121.351 181.378 L 1121.41 221.472 L 1084.69 221.472 L 1084.69 206.826 L 1108.369 206.717 L 1108.369 181.292 Z  M 1108.369 100.685 L 1121.351 100.6 L 1121.41 60.068 L 1084.69 60.068 L 1084.69 74.714 L 1108.369 74.714 L 1108.369 100.685 Z  M 1084.69 74.714 L 1084.69 60.068 L 1057.466 60.068 Q 1040.904 64.245 1040.638 80.056 Q 1040.373 95.866 1040.638 99.285 L 1040.638 135.845 L 1040.511 135.845 L 1056.184 135.845 L 1056.397 74.714 L 1084.69 74.714 Z  M 951.278 142.295 L 951.278 206.937 L 964.198 206.937 L 964.198 221.472 L 922.207 221.472 L 922.207 206.937 L 935.127 206.937 L 935.127 74.504 L 922.207 74.504 L 922.207 59.968 L 964.198 59.968 L 964.198 74.504 L 951.278 74.504 L 951.278 132.81 L 1001.725 59.968 L 1022.053 59.968 L 1022.053 74.504 L 1010.391 74.504 L 967.473 137.708 L 1011.027 206.937 L 1022.468 206.937 L 1022.468 221.472 L 1001.465 221.472 L 951.278 142.295 Z  M 891.039 221.472 L 811.007 221.472 L 811.007 206.937 L 823.694 206.937 L 823.694 145.111 L 823.694 145.111 L 823.694 130.576 L 823.694 130.576 L 823.694 74.504 L 811.007 74.504 L 811.007 59.968 L 823.694 59.968 L 823.694 59.968 L 839.844 59.968 L 891.039 59.968 L 891.039 59.968 L 903.959 59.968 L 903.959 59.968 L 903.959 59.968 L 903.959 74.504 L 903.959 74.504 L 903.959 100.344 L 891.039 100.344 L 891.039 74.504 L 839.844 74.504 L 839.844 130.576 L 867.536 130.576 L 867.536 115.233 L 880.457 115.233 L 880.457 130.576 L 880.457 130.576 L 880.457 145.111 L 880.457 145.111 L 880.457 160.454 L 867.536 160.454 L 867.536 145.111 L 839.844 145.111 L 839.844 206.937 L 891.039 206.937 L 891.039 181.096 L 903.959 181.096 L 903.959 206.937 L 903.959 206.937 L 903.959 221.472 L 903.959 221.472 L 903.959 221.472 L 891.039 221.472 L 891.039 221.472 Z  M 699.973 100.344 L 714.148 100.344 L 714.148 74.504 L 738.374 74.504 L 738.374 128.346 C 742.191 125.816 747.573 126.226 754.524 129.585 L 754.524 129.585 L 754.524 74.504 L 778.75 74.504 L 778.75 100.344 L 793.285 100.344 L 793.285 74.504 L 793.285 74.504 L 793.285 59.968 L 793.285 59.968 L 793.285 59.968 L 778.75 59.968 L 778.75 59.968 L 778.75 59.968 L 754.524 59.968 L 754.524 59.968 L 738.374 59.968 L 738.374 59.968 L 714.148 59.968 L 714.148 59.968 L 714.148 59.968 L 699.973 59.968 L 699.973 100.344 L 699.973 100.344 Z  M 754.524 129.585 L 754.524 206.937 L 767.444 206.937 L 767.444 221.472 L 754.524 221.472 L 754.524 221.472 L 738.374 221.472 L 738.374 221.472 L 725.453 221.472 L 725.453 206.937 L 725.453 206.937 L 725.453 206.937 L 725.453 206.937 L 738.374 206.937 L 738.374 128.346 C 742.191 125.816 747.573 126.226 754.524 129.585 L 754.524 129.585 Z  M 619.493 161.951 L 619.493 161.951 L 619.493 206.937 L 632.414 206.937 L 632.414 221.472 L 619.493 221.472 L 603.343 221.472 L 590.423 221.472 L 590.423 206.937 L 603.343 206.937 L 603.343 74.504 L 591.056 74.504 L 591.056 59.968 L 620.389 59.968 L 620.389 74.504 L 619.493 74.504 L 619.493 144.433 L 619.493 144.419 L 619.493 161.951 L 619.493 161.951 Z  M 620.389 74.484 L 620.389 59.968 L 665.328 60.069 Q 680.711 60.71 682.42 74.384 L 682.42 111.347 Q 681.993 120.32 674.942 124.38 L 619.493 161.976 L 619.493 143.601 L 668.532 111.347 L 668.532 74.384 L 620.389 74.484 Z  M 530.995 206.826 L 530.995 221.472 L 503.22 221.472 Q 486.658 217.296 486.392 201.485 Q 486.127 185.675 486.392 182.256 L 486.392 144.605 L 486.392 144.605 L 501.938 144.605 L 502.151 206.826 L 530.995 206.826 Z  M 530.995 74.714 L 530.995 60.068 L 503.22 60.068 Q 486.658 64.245 486.392 80.056 Q 486.127 95.866 486.392 99.285 L 486.392 136.936 L 486.392 144.605 L 501.938 144.605 L 502.151 74.714 L 530.995 74.714 Z  M 530.995 206.826 L 530.995 221.472 L 552.778 221.472 Q 569.34 217.296 569.605 201.485 Q 569.871 185.675 569.605 182.256 L 569.605 144.605 L 569.605 137.844 L 554.06 137.844 L 553.846 206.826 L 530.995 206.826 Z  M 530.995 74.714 L 530.995 60.068 L 552.778 60.068 Q 569.34 64.245 569.605 80.056 Q 569.871 95.866 569.605 99.285 L 569.605 137.844 L 569.605 137.844 L 554.06 137.844 L 553.846 74.714 L 530.995 74.714 Z  M 397.481 142.295 L 397.481 206.937 L 410.401 206.937 L 410.401 221.472 L 368.41 221.472 L 368.41 206.937 L 381.331 206.937 L 381.331 74.504 L 368.41 74.504 L 368.41 59.968 L 410.401 59.968 L 410.401 74.504 L 397.481 74.504 L 397.481 132.81 L 447.929 59.968 L 468.256 59.968 L 468.256 74.504 L 456.594 74.504 L 413.676 137.708 L 457.23 206.937 L 468.671 206.937 L 468.671 221.472 L 447.668 221.472 L 397.481 142.295 Z " fill-rule="evenodd" fill="black" stroke="none"/></mask><path d=" M 1084.69 206.826 L 1084.69 221.472 L 1057.466 221.472 Q 1040.904 217.296 1040.638 201.485 Q 1040.373 185.675 1040.638 182.256 L 1040.638 144.605 L 1040.638 135.845 L 1056.184 135.845 L 1056.397 206.826 L 1084.69 206.826 Z  M 1108.369 181.292 L 1121.351 181.378 L 1121.41 221.472 L 1084.69 221.472 L 1084.69 206.826 L 1108.369 206.717 L 1108.369 181.292 Z  M 1108.369 100.685 L 1121.351 100.6 L 1121.41 60.068 L 1084.69 60.068 L 1084.69 74.714 L 1108.369 74.714 L 1108.369 100.685 Z  M 1084.69 74.714 L 1084.69 60.068 L 1057.466 60.068 Q 1040.904 64.245 1040.638 80.056 Q 1040.373 95.866 1040.638 99.285 L 1040.638 135.845 L 1040.511 135.845 L 1056.184 135.845 L 1056.397 74.714 L 1084.69 74.714 Z  M 951.278 142.295 L 951.278 206.937 L 964.198 206.937 L 964.198 221.472 L 922.207 221.472 L 922.207 206.937 L 935.127 206.937 L 935.127 74.504 L 922.207 74.504 L 922.207 59.968 L 964.198 59.968 L 964.198 74.504 L 951.278 74.504 L 951.278 132.81 L 1001.725 59.968 L 1022.053 59.968 L 1022.053 74.504 L 1010.391 74.504 L 967.473 137.708 L 1011.027 206.937 L 1022.468 206.937 L 1022.468 221.472 L 1001.465 221.472 L 951.278 142.295 Z  M 891.039 221.472 L 811.007 221.472 L 811.007 206.937 L 823.694 206.937 L 823.694 145.111 L 823.694 145.111 L 823.694 130.576 L 823.694 130.576 L 823.694 74.504 L 811.007 74.504 L 811.007 59.968 L 823.694 59.968 L 823.694 59.968 L 839.844 59.968 L 891.039 59.968 L 891.039 59.968 L 903.959 59.968 L 903.959 59.968 L 903.959 59.968 L 903.959 74.504 L 903.959 74.504 L 903.959 100.344 L 891.039 100.344 L 891.039 74.504 L 839.844 74.504 L 839.844 130.576 L 867.536 130.576 L 867.536 115.233 L 880.457 115.233 L 880.457 130.576 L 880.457 130.576 L 880.457 145.111 L 880.457 145.111 L 880.457 160.454 L 867.536 160.454 L 867.536 145.111 L 839.844 145.111 L 839.844 206.937 L 891.039 206.937 L 891.039 181.096 L 903.959 181.096 L 903.959 206.937 L 903.959 206.937 L 903.959 221.472 L 903.959 221.472 L 903.959 221.472 L 891.039 221.472 L 891.039 221.472 Z  M 699.973 100.344 L 714.148 100.344 L 714.148 74.504 L 738.374 74.504 L 738.374 128.346 C 742.191 125.816 747.573 126.226 754.524 129.585 L 754.524 129.585 L 754.524 74.504 L 778.75 74.504 L 778.75 100.344 L 793.285 100.344 L 793.285 74.504 L 793.285 74.504 L 793.285 59.968 L 793.285 59.968 L 793.285 59.968 L 778.75 59.968 L 778.75 59.968 L 778.75 59.968 L 754.524 59.968 L 754.524 59.968 L 738.374 59.968 L 738.374 59.968 L 714.148 59.968 L 714.148 59.968 L 714.148 59.968 L 699.973 59.968 L 699.973 100.344 L 699.973 100.344 Z  M 754.524 129.585 L 754.524 206.937 L 767.444 206.937 L 767.444 221.472 L 754.524 221.472 L 754.524 221.472 L 738.374 221.472 L 738.374 221.472 L 725.453 221.472 L 725.453 206.937 L 725.453 206.937 L 725.453 206.937 L 725.453 206.937 L 738.374 206.937 L 738.374 128.346 C 742.191 125.816 747.573 126.226 754.524 129.585 L 754.524 129.585 Z  M 619.493 161.951 L 619.493 161.951 L 619.493 206.937 L 632.414 206.937 L 632.414 221.472 L 619.493 221.472 L 603.343 221.472 L 590.423 221.472 L 590.423 206.937 L 603.343 206.937 L 603.343 74.504 L 591.056 74.504 L 591.056 59.968 L 620.389 59.968 L 620.389 74.504 L 619.493 74.504 L 619.493 144.433 L 619.493 144.419 L 619.493 161.951 L 619.493 161.951 Z  M 620.389 74.484 L 620.389 59.968 L 665.328 60.069 Q 680.711 60.71 682.42 74.384 L 682.42 111.347 Q 681.993 120.32 674.942 124.38 L 619.493 161.976 L 619.493 143.601 L 668.532 111.347 L 668.532 74.384 L 620.389 74.484 Z  M 530.995 206.826 L 530.995 221.472 L 503.22 221.472 Q 486.658 217.296 486.392 201.485 Q 486.127 185.675 486.392 182.256 L 486.392 144.605 L 486.392 144.605 L 501.938 144.605 L 502.151 206.826 L 530.995 206.826 Z  M 530.995 74.714 L 530.995 60.068 L 503.22 60.068 Q 486.658 64.245 486.392 80.056 Q 486.127 95.866 486.392 99.285 L 486.392 136.936 L 486.392 144.605 L 501.938 144.605 L 502.151 74.714 L 530.995 74.714 Z  M 530.995 206.826 L 530.995 221.472 L 552.778 221.472 Q 569.34 217.296 569.605 201.485 Q 569.871 185.675 569.605 182.256 L 569.605 144.605 L 569.605 137.844 L 554.06 137.844 L 553.846 206.826 L 530.995 206.826 Z  M 530.995 74.714 L 530.995 60.068 L 552.778 60.068 Q 569.34 64.245 569.605 80.056 Q 569.871 95.866 569.605 99.285 L 569.605 137.844 L 569.605 137.844 L 554.06 137.844 L 553.846 74.714 L 530.995 74.714 Z  M 397.481 142.295 L 397.481 206.937 L 410.401 206.937 L 410.401 221.472 L 368.41 221.472 L 368.41 206.937 L 381.331 206.937 L 381.331 74.504 L 368.41 74.504 L 368.41 59.968 L 410.401 59.968 L 410.401 74.504 L 397.481 74.504 L 397.481 132.81 L 447.929 59.968 L 468.256 59.968 L 468.256 74.504 L 456.594 74.504 L 413.676 137.708 L 457.23 206.937 L 468.671 206.937 L 468.671 221.472 L 447.668 221.472 L 397.481 142.295 Z " fill-rule="evenodd" fill="none"/><path d=" M 1084.69 206.826 L 1084.69 221.472 L 1057.466 221.472 Q 1040.904 217.296 1040.638 201.485 Q 1040.373 185.675 1040.638 182.256 L 1040.638 144.605 L 1040.638 135.845 L 1056.184 135.845 L 1056.397 206.826 L 1084.69 206.826 Z  M 1108.369 181.292 L 1121.351 181.378 L 1121.41 221.472 L 1084.69 221.472 L 1084.69 206.826 L 1108.369 206.717 L 1108.369 181.292 Z  M 1108.369 100.685 L 1121.351 100.6 L 1121.41 60.068 L 1084.69 60.068 L 1084.69 74.714 L 1108.369 74.714 L 1108.369 100.685 Z  M 1084.69 74.714 L 1084.69 60.068 L 1057.466 60.068 Q 1040.904 64.245 1040.638 80.056 Q 1040.373 95.866 1040.638 99.285 L 1040.638 135.845 L 1040.511 135.845 L 1056.184 135.845 L 1056.397 74.714 L 1084.69 74.714 Z  M 951.278 142.295 L 951.278 206.937 L 964.198 206.937 L 964.198 221.472 L 922.207 221.472 L 922.207 206.937 L 935.127 206.937 L 935.127 74.504 L 922.207 74.504 L 922.207 59.968 L 964.198 59.968 L 964.198 74.504 L 951.278 74.504 L 951.278 132.81 L 1001.725 59.968 L 1022.053 59.968 L 1022.053 74.504 L 1010.391 74.504 L 967.473 137.708 L 1011.027 206.937 L 1022.468 206.937 L 1022.468 221.472 L 1001.465 221.472 L 951.278 142.295 Z  M 891.039 221.472 L 811.007 221.472 L 811.007 206.937 L 823.694 206.937 L 823.694 145.111 L 823.694 145.111 L 823.694 130.576 L 823.694 130.576 L 823.694 74.504 L 811.007 74.504 L 811.007 59.968 L 823.694 59.968 L 823.694 59.968 L 839.844 59.968 L 891.039 59.968 L 891.039 59.968 L 903.959 59.968 L 903.959 59.968 L 903.959 59.968 L 903.959 74.504 L 903.959 74.504 L 903.959 100.344 L 891.039 100.344 L 891.039 74.504 L 839.844 74.504 L 839.844 130.576 L 867.536 130.576 L 867.536 115.233 L 880.457 115.233 L 880.457 130.576 L 880.457 130.576 L 880.457 145.111 L 880.457 145.111 L 880.457 160.454 L 867.536 160.454 L 867.536 145.111 L 839.844 145.111 L 839.844 206.937 L 891.039 206.937 L 891.039 181.096 L 903.959 181.096 L 903.959 206.937 L 903.959 206.937 L 903.959 221.472 L 903.959 221.472 L 903.959 221.472 L 891.039 221.472 L 891.039 221.472 Z  M 699.973 100.344 L 714.148 100.344 L 714.148 74.504 L 738.374 74.504 L 738.374 128.346 C 742.191 125.816 747.573 126.226 754.524 129.585 L 754.524 129.585 L 754.524 74.504 L 778.75 74.504 L 778.75 100.344 L 793.285 100.344 L 793.285 74.504 L 793.285 74.504 L 793.285 59.968 L 793.285 59.968 L 793.285 59.968 L 778.75 59.968 L 778.75 59.968 L 778.75 59.968 L 754.524 59.968 L 754.524 59.968 L 738.374 59.968 L 738.374 59.968 L 714.148 59.968 L 714.148 59.968 L 714.148 59.968 L 699.973 59.968 L 699.973 100.344 L 699.973 100.344 Z  M 754.524 129.585 L 754.524 206.937 L 767.444 206.937 L 767.444 221.472 L 754.524 221.472 L 754.524 221.472 L 738.374 221.472 L 738.374 221.472 L 725.453 221.472 L 725.453 206.937 L 725.453 206.937 L 725.453 206.937 L 725.453 206.937 L 738.374 206.937 L 738.374 128.346 C 742.191 125.816 747.573 126.226 754.524 129.585 L 754.524 129.585 Z  M 619.493 161.951 L 619.493 161.951 L 619.493 206.937 L 632.414 206.937 L 632.414 221.472 L 619.493 221.472 L 603.343 221.472 L 590.423 221.472 L 590.423 206.937 L 603.343 206.937 L 603.343 74.504 L 591.056 74.504 L 591.056 59.968 L 620.389 59.968 L 620.389 74.504 L 619.493 74.504 L 619.493 144.433 L 619.493 144.419 L 619.493 161.951 L 619.493 161.951 Z  M 620.389 74.484 L 620.389 59.968 L 665.328 60.069 Q 680.711 60.71 682.42 74.384 L 682.42 111.347 Q 681.993 120.32 674.942 124.38 L 619.493 161.976 L 619.493 143.601 L 668.532 111.347 L 668.532 74.384 L 620.389 74.484 Z  M 530.995 206.826 L 530.995 221.472 L 503.22 221.472 Q 486.658 217.296 486.392 201.485 Q 486.127 185.675 486.392 182.256 L 486.392 144.605 L 486.392 144.605 L 501.938 144.605 L 502.151 206.826 L 530.995 206.826 Z  M 530.995 74.714 L 530.995 60.068 L 503.22 60.068 Q 486.658 64.245 486.392 80.056 Q 486.127 95.866 486.392 99.285 L 486.392 136.936 L 486.392 144.605 L 501.938 144.605 L 502.151 74.714 L 530.995 74.714 Z  M 530.995 206.826 L 530.995 221.472 L 552.778 221.472 Q 569.34 217.296 569.605 201.485 Q 569.871 185.675 569.605 182.256 L 569.605 144.605 L 569.605 137.844 L 554.06 137.844 L 553.846 206.826 L 530.995 206.826 Z  M 530.995 74.714 L 530.995 60.068 L 552.778 60.068 Q 569.34 64.245 569.605 80.056 Q 569.871 95.866 569.605 99.285 L 569.605 137.844 L 569.605 137.844 L 554.06 137.844 L 553.846 74.714 L 530.995 74.714 Z  M 397.481 142.295 L 397.481 206.937 L 410.401 206.937 L 410.401 221.472 L 368.41 221.472 L 368.41 206.937 L 381.331 206.937 L 381.331 74.504 L 368.41 74.504 L 368.41 59.968 L 410.401 59.968 L 410.401 74.504 L 397.481 74.504 L 397.481 132.81 L 447.929 59.968 L 468.256 59.968 L 468.256 74.504 L 456.594 74.504 L 413.676 137.708 L 457.23 206.937 L 468.671 206.937 L 468.671 221.472 L 447.668 221.472 L 397.481 142.295 Z " fill-rule="evenodd" fill="none" mask="url(#_mask_Cv7UOzyhyP6FMq57Xon6oc3FLUjiJmYX)" vector-effect="non-scaling-stroke" stroke-width="4" stroke="rgb(255,255,255)" stroke-linejoin="miter" stroke-linecap="square" stroke-miterlimit="3"/></g><g><g><mask id="_mask_J0l2yKendUItoC530GR4nrnn3a37WgwK"><polygon points="312.41,142.174,234.878,277.782,78.673,278.441,0,143.493,77.532,7.885,233.737,7.226" fill="white" stroke="none"/></mask><polygon points="312.41,142.174,234.878,277.782,78.673,278.441,0,143.493,77.532,7.885,233.737,7.226" fill="none"/><polygon points="312.41,142.174,234.878,277.782,78.673,278.441,0,143.493,77.532,7.885,233.737,7.226" fill="none" mask="url(#_mask_J0l2yKendUItoC530GR4nrnn3a37WgwK)" vector-effect="non-scaling-stroke" stroke-width="4" stroke="rgb(255,255,255)" stroke-linejoin="miter" stroke-linecap="square" stroke-miterlimit="3"/></g><g><path d=" M 167.499 270.561 L 149.788 262.464 L 150.779 236.702 L 128.445 195.965 L 140.682 197.104 L 147.796 187.703 L 151.78 193.97 L 153.488 189.412 L 156.334 125.704 Q 148.568 109.942 136.982 104.623 Q 125.396 99.304 122.435 99.746 Q 119.204 96.838 115.561 90.094 Q 111.916 83.347 92.794 36.874 L 135.482 49.409 L 139.466 53.112 L 168.001 43.996 L 168.001 42.287 L 166.786 42.287 L 172.477 3 L 216.018 55.702 Q 210.042 69.661 208.334 69.661 C 206.627 69.661 191.681 98.519 190.121 111.952 C 187.413 131.849 187.011 144.969 186.629 149.027 L 188.698 229.658 L 191.829 243.617 L 186.422 265.448 L 172.477 258.042 L 167.499 270.561 Z " fill="none" vector-effect="non-scaling-stroke" stroke-width="2" stroke="rgb(255,255,255)" stroke-linejoin="miter" stroke-linecap="square" stroke-miterlimit="3"/><g><path d=" M 119.133 85.861 L 115.738 90.815 L 105.183 67.771 L 92.794 36.874 L 132.801 48.326 L 135.481 50.241 L 119.133 85.861 Z " fill="none" vector-effect="non-scaling-stroke" stroke-width="1" stroke="rgb(255,255,255)" stroke-linejoin="miter" stroke-linecap="square" stroke-miterlimit="3"/></g><g filter="url(#RyxaJ99DlL4C4v86qLQhHjdEjJnkANt3)"><path d=" M 212.704 52.478 L 166.825 42.164 L 172.151 3.065 L 212.704 52.478 Z " fill="none" vector-effect="non-scaling-stroke" stroke-width="1" stroke="rgb(255,255,255)" stroke-linejoin="miter" stroke-linecap="square" stroke-miterlimit="3"/></g><defs><filter id="RyxaJ99DlL4C4v86qLQhHjdEjJnkANt3" x="-200%" y="-200%" width="400%" height="400%" filterUnits="objectBoundingBox" color-interpolation-filters="sRGB"><feGaussianBlur xmlns="http://www.w3.org/2000/svg" stdDeviation="0"/></filter></defs><g><path d=" M 121.586 96.161 L 170.686 75.436 L 172.151 96.161 L 121.586 96.161 Z " fill="none" vector-effect="non-scaling-stroke" stroke-width="1" stroke="rgb(255,255,255)" stroke-linejoin="miter" stroke-linecap="square" stroke-miterlimit="3"/><path d=" M 214.062 57.275 L 170.686 75.436 L 172.151 96.161 L 199.335 75.436 L 208.513 67.771 L 214.062 57.275 Z " fill="none" vector-effect="non-scaling-stroke" stroke-width="1" stroke="rgb(255,255,255)" stroke-linejoin="miter" stroke-linecap="square" stroke-miterlimit="3"/></g><g><path d=" M 167.833 72.411 L 156.981 47.75 L 155.54 47.668 L 167.833 72.411 Z " fill="rgb(255,255,255)"/></g><g><path d=" M 206.961 69.467 L 168.905 107.038 L 172.151 111.952 L 170.686 173.68 L 170.686 212.954 L 172.477 253.045 L 172.877 258.533 L 177.474 261.157 L 183.002 264.189 L 178.52 158.277 L 179.8 122.769 C 180.845 120.011 180.302 116.142 181.392 113.475 C 182.483 110.808 183.247 105.371 184.38 102.792 L 206.961 69.467 Z " fill="none" vector-effect="non-scaling-stroke" stroke-width="1" stroke="rgb(255,255,255)" stroke-linejoin="miter" stroke-linecap="square" stroke-miterlimit="3"/><path d=" M 164.083 110.149 L 170.392 114.155 L 167.907 271.598 L 148.953 263.985 L 155.494 126.508 Q 153.666 116.84 147.796 111.6 L 140.682 105.555 L 164.083 110.149 Z " fill="none" vector-effect="non-scaling-stroke" stroke-width="2" stroke="rgb(255,255,255)" stroke-linejoin="miter" stroke-linecap="square" stroke-miterlimit="3"/></g></g></g><g/></g></svg>