<?xml version="1.0" encoding="UTF-8" standalone="no"?><!-- Generator: Gravit.io --><svg xmlns="http://www.w3.org/2000/svg" xmlns:xlink="http://www.w3.org/1999/xlink" style="isolation:isolate" viewBox="0 0 312.41 284" width="312.41pt" height="284pt"><defs><clipPath id="_clipPath_PBVpoZiZp1CbxtqghYFWSBSOyqUJAxNi"><rect width="312.41" height="284"/></clipPath></defs><g clip-path="url(#_clipPath_PBVpoZiZp1CbxtqghYFWSBSOyqUJAxNi)"><g><mask id="_mask_2HLQ7T2P5Rg5RLDbCynuPzqaTNQWiE33"><polygon points="312.41,147.734,234.878,283.341,78.673,284,0,149.052,77.532,13.445,233.737,12.786" fill="white" stroke="none"/></mask><polygon points="312.41,147.734,234.878,283.341,78.673,284,0,149.052,77.532,13.445,233.737,12.786" fill="none"/><polygon points="312.41,147.734,234.878,283.341,78.673,284,0,149.052,77.532,13.445,233.737,12.786" fill="none" mask="url(#_mask_2HLQ7T2P5Rg5RLDbCynuPzqaTNQWiE33)" vector-effect="non-scaling-stroke" stroke-width="4" stroke="rgb(30,120,255)" stroke-linejoin="miter" stroke-linecap="square" stroke-miterlimit="3"/><defs><filter id="33sGg9vMlfxGdmbA1SLd61s6FXDBWsH5" x="-200%" y="-200%" width="400%" height="400%" filterUnits="objectBoundingBox" color-interpolation-filters="sRGB"><feOffset xmlns="http://www.w3.org/2000/svg" in="SourceGraphic" dx="0" dy="0"/><feGaussianBlur xmlns="http://www.w3.org/2000/svg" stdDeviation="2.146804531419514" result="pf_100_offsetBlur"/><feComposite xmlns="http://www.w3.org/2000/svg" in="SourceGraphic" in2="pf_100_offsetBlur" result="pf_100_inverse" operator="out"/><feFlood xmlns="http://www.w3.org/2000/svg" flood-color="#000000" flood-opacity="0.5" result="pf_100_color"/><feComposite xmlns="http://www.w3.org/2000/svg" in="pf_100_color" in2="pf_100_inverse" operator="in" result="pf_100_shadow"/><feComposite xmlns="http://www.w3.org/2000/svg" in="pf_100_shadow" in2="SourceGraphic" operator="over"/></filter></defs><g filter="url(#33sGg9vMlfxGdmbA1SLd61s6FXDBWsH5)"><path d=" M 168.594 279.113 L 149.02 271.574 L 150.084 244.907 L 126.08 202.74 L 139.232 203.919 L 146.879 194.188 L 151.161 200.676 L 152.996 195.958 L 156.054 130.012 Q 150.296 113.181 135.256 108.191 Q 120.216 103.202 120.492 105.433 Q 116.516 99.934 112.234 93.152 Q 107.952 86.37 87.765 38.064 L 133.643 51.038 L 137.925 54.872 L 168.594 45.436 L 168.594 43.666 L 167.287 43.666 L 173.405 3 L 220.2 57.552 Q 213.777 72.001 211.942 72.001 C 210.107 72.001 194.044 101.873 192.368 115.777 C 189.457 136.373 189.025 149.954 188.614 154.155 L 190.838 237.616 L 194.203 252.065 L 188.391 274.663 L 173.405 266.996 L 168.594 279.113 Z " fill="rgb(186,7,5)" vector-effect="non-scaling-stroke" stroke-width="2" stroke="rgb(186,7,5)" stroke-linejoin="miter" stroke-linecap="square" stroke-miterlimit="3"/></g><g><defs><filter id="XZzG9E4QQ9RT5PAF7hFEBDHdhpRspX15" x="-200%" y="-200%" width="400%" height="400%" filterUnits="objectBoundingBox" color-interpolation-filters="sRGB"><feOffset xmlns="http://www.w3.org/2000/svg" in="SourceGraphic" dx="-7" dy="0"/><feGaussianBlur xmlns="http://www.w3.org/2000/svg" stdDeviation="5.152330875406834" result="pf_100_offsetBlur"/><feComposite xmlns="http://www.w3.org/2000/svg" in="SourceGraphic" in2="pf_100_offsetBlur" result="pf_100_inverse" operator="out"/><feFlood xmlns="http://www.w3.org/2000/svg" flood-color="#000000" flood-opacity="0.3" result="pf_100_color"/><feComposite xmlns="http://www.w3.org/2000/svg" in="pf_100_color" in2="pf_100_inverse" operator="in" result="pf_100_shadow"/><feComposite xmlns="http://www.w3.org/2000/svg" in="pf_100_shadow" in2="SourceGraphic" operator="over"/></filter></defs><g filter="url(#XZzG9E4QQ9RT5PAF7hFEBDHdhpRspX15)"><path d=" M 151.372 233.32 L 138.823 203.919 L 146.638 193.337 L 152.996 202.34 L 151.372 233.32 Z " fill="rgb(138,6,4)"/></g><defs><filter id="fjUauDOSEDUUYJUTTDyAWxhvFvN5lV0A" x="-200%" y="-200%" width="400%" height="400%" filterUnits="objectBoundingBox" color-interpolation-filters="sRGB"><feOffset xmlns="http://www.w3.org/2000/svg" in="SourceGraphic" dx="0" dy="-5"/><feGaussianBlur xmlns="http://www.w3.org/2000/svg" stdDeviation="2.146804531419514" result="pf_100_offsetBlur"/><feComposite xmlns="http://www.w3.org/2000/svg" in="SourceGraphic" in2="pf_100_offsetBlur" result="pf_100_inverse" operator="out"/><feFlood xmlns="http://www.w3.org/2000/svg" flood-color="#000000" flood-opacity="0.3" result="pf_100_color"/><feComposite xmlns="http://www.w3.org/2000/svg" in="pf_100_color" in2="pf_100_inverse" operator="in" result="pf_100_shadow"/><feComposite xmlns="http://www.w3.org/2000/svg" in="pf_100_shadow" in2="SourceGraphic" operator="over"/></filter></defs><g filter="url(#fjUauDOSEDUUYJUTTDyAWxhvFvN5lV0A)"><path d=" M 138.401 226.559 L 126.08 202.34 L 138.823 203.919 L 151.372 233.32 L 149.67 247.347 L 138.401 226.559 Z " fill="rgb(157,8,5)"/></g><path d=" M 150.917 250.684 L 138.823 227.131 L 146.743 233.766 L 151.372 241.06 L 150.917 250.684 Z " fill="rgb(111,13,2)"/></g><g><linearGradient id="_lgradient_8" x1="1.1149363457055774" y1="-0.08081979891724739" x2="0.19974896897973882" y2="0.8592420726991483" gradientTransform="matrix(21.806,0,0,38.994,115.605,55.351)" gradientUnits="userSpaceOnUse"><stop offset="0%" stop-opacity="1" style="stop-color:rgb(190,7,7)"/><stop offset="100%" stop-opacity="1" style="stop-color:rgb(182,7,0)"/></linearGradient><path d=" M 118.71 94.345 L 137.411 55.351 L 115.605 93.898 L 118.71 94.345 Z " fill="url(#_lgradient_8)"/><linearGradient id="_lgradient_9" x1="1.1387501267160418" y1="-0.14668227116359794" x2="0.20720236371052714" y2="0.7855168064441025" gradientTransform="matrix(20.037,0,0,37.148,117.375,52.593)" gradientUnits="userSpaceOnUse"><stop offset="0.8333333333333334%" stop-opacity="1" style="stop-color:rgb(215,93,93)"/><stop offset="98.33333333333333%" stop-opacity="1" style="stop-color:rgb(181,1,1)"/></linearGradient><path d=" M 117.375 89.741 L 137.411 54.215 L 135.754 52.593 L 117.375 89.741 Z " fill="url(#_lgradient_9)"/><path d=" M 116.073 88.77 L 112.424 93.899 L 101.08 70.045 L 87.765 38.064 L 130.763 49.917 L 133.643 51.899 L 116.073 88.77 Z " fill="rgb(186,7,5)"/></g><g filter="url(#3CKr6YiHcUijdRWQO1Wxh2wJ77BOFo9g)"><path d=" M 216.639 54.215 L 167.329 43.539 L 173.054 3.067 L 216.639 54.215 Z " fill="rgb(198,27,8)"/><defs><filter id="rkl3gh1HVjvCPJXPuLSKAGJGcTSjIz3d" x="-200%" y="-200%" width="400%" height="400%" filterUnits="objectBoundingBox" color-interpolation-filters="sRGB"><feGaussianBlur xmlns="http://www.w3.org/2000/svg" stdDeviation="0"/></filter></defs><g filter="url(#rkl3gh1HVjvCPJXPuLSKAGJGcTSjIz3d)"><path d=" M 168.242 43.861 L 168.414 45.188 L 219.245 57.537 L 216.639 54.215 L 168.242 43.861 Z " fill="rgb(136,35,26)"/></g><defs><filter id="8my0frYUXxnPIWmw5EVeTnFoDjvGDWWW" x="-200%" y="-200%" width="400%" height="400%" filterUnits="objectBoundingBox" color-interpolation-filters="sRGB"><feGaussianBlur xmlns="http://www.w3.org/2000/svg" stdDeviation="0"/></filter></defs><g filter="url(#8my0frYUXxnPIWmw5EVeTnFoDjvGDWWW)"><path d=" M 168.414 45.531 L 164.426 46.651 L 163.951 49.917 L 209.517 61.978 L 216.639 60.063 L 219.245 57.537 L 168.414 45.531 Z " fill="rgb(189,17,6)"/></g></g><defs><filter id="3CKr6YiHcUijdRWQO1Wxh2wJ77BOFo9g" x="-200%" y="-200%" width="400%" height="400%" filterUnits="objectBoundingBox" color-interpolation-filters="sRGB"><feGaussianBlur xmlns="http://www.w3.org/2000/svg" stdDeviation="0"/></filter></defs><g><path d=" M 118.71 99.432 L 171.48 77.979 L 173.054 99.432 L 118.71 99.432 Z " fill="rgb(160,7,5)"/><path d=" M 218.098 59.181 L 171.48 77.979 L 173.054 99.432 L 202.27 77.979 L 212.134 70.045 L 218.098 59.181 Z " fill="rgb(160,7,5)"/></g><g><defs><filter id="Dsyfaky0iVeCdWDj1bBGEEnwv7ioLX1z" x="-200%" y="-200%" width="400%" height="400%" filterUnits="objectBoundingBox" color-interpolation-filters="sRGB"><feGaussianBlur xmlns="http://www.w3.org/2000/svg" stdDeviation="0.7299135406826348"/></filter></defs><g filter="url(#Dsyfaky0iVeCdWDj1bBGEEnwv7ioLX1z)"><linearGradient id="_lgradient_10" x1="1.1403480868440226" y1="-0.15349115699666652" x2="-0.8247248692603555" y2="1.843089526778647" gradientTransform="matrix(8.877,-6.278,11.546,15.174,161.508,84.258)" gradientUnits="userSpaceOnUse"><stop offset="0.8333333333333334%" stop-opacity="1" style="stop-color:rgb(249,138,138)"/><stop offset="98.33333333333333%" stop-opacity="1" style="stop-color:rgb(181,1,1)"/></linearGradient><path d=" M 173.054 99.432 L 170.889 78.642 L 169.651 78.499 L 173.054 99.432 Z " fill="url(#_lgradient_10)"/></g><linearGradient id="_lgradient_11" x1="1.1387501267160418" y1="-0.14668227116359794" x2="0.20720236371052714" y2="0.7855168064441025" gradientTransform="matrix(7.912,-8.413,20.47,17.895,147.944,56.953)" gradientUnits="userSpaceOnUse"><stop offset="0.8333333333333334%" stop-opacity="1" style="stop-color:rgb(215,93,93)"/><stop offset="98.33333333333333%" stop-opacity="1" style="stop-color:rgb(181,1,1)"/></linearGradient><path d=" M 168.414 74.848 L 156.75 49.322 L 155.202 49.236 L 168.414 74.848 Z " fill="url(#_lgradient_11)"/></g><g><path d=" M 118.71 99.432 L 150.908 101.315 L 160.695 103.379 L 168.341 106.623 L 169.565 109.867 L 118.71 99.432 Z " fill="rgb(111,13,2)"/><path d=" M 171.48 106.623 L 173.054 101.315 L 209.382 71.8 L 171.48 109.867 L 169.565 109.867 L 168.341 106.623 L 171.48 106.623 Z " fill="rgb(111,13,2)"/></g><g><path d=" M 210.466 71.8 L 169.565 110.691 L 173.054 115.777 L 171.48 179.672 L 171.48 220.325 L 173.405 261.824 L 173.834 267.505 L 178.775 270.221 L 184.716 273.359 L 179.899 163.729 L 181.275 126.974 C 182.398 124.119 181.814 120.114 182.986 117.354 C 184.158 114.593 184.98 108.965 186.197 106.296 L 210.466 71.8 Z " fill="rgb(138,6,4)"/><defs><filter id="5w1W9kYL9RfwfAoOAbRWSRs1YMsYDKwW" x="-200%" y="-200%" width="400%" height="400%" filterUnits="objectBoundingBox" color-interpolation-filters="sRGB"><feOffset xmlns="http://www.w3.org/2000/svg" in="SourceGraphic" dx="-5" dy="0"/><feGaussianBlur xmlns="http://www.w3.org/2000/svg" stdDeviation="2.576165437703417" result="pf_100_offsetBlur"/><feComposite xmlns="http://www.w3.org/2000/svg" in="SourceGraphic" in2="pf_100_offsetBlur" result="pf_100_inverse" operator="out"/><feFlood xmlns="http://www.w3.org/2000/svg" flood-color="#512727" flood-opacity="0.4" result="pf_100_color"/><feComposite xmlns="http://www.w3.org/2000/svg" in="pf_100_color" in2="pf_100_inverse" operator="in" result="pf_100_shadow"/><feComposite xmlns="http://www.w3.org/2000/svg" in="pf_100_shadow" in2="SourceGraphic" operator="over"/></filter></defs><g filter="url(#5w1W9kYL9RfwfAoOAbRWSRs1YMsYDKwW)"><path d=" M 210.142 72.054 Q 205.386 82.804 200.872 89.741 C 191.598 103.996 188.885 112.301 188.391 114.485 L 187.21 120.524 L 186.197 129.148 L 184.394 156.78 L 184.394 202.74 L 187.21 243.232 L 188.614 275.29 L 184.716 273.359 Q 179.824 204.439 179.545 202.539 L 179.545 156.136 L 180.693 129.148 L 181.832 120.524 L 182.986 114.109 L 184.394 108.562 L 186.197 104.378 L 210.142 72.054 Z " fill="rgb(138,6,4)"/></g><path d=" M 164.383 113.911 L 171.164 118.057 L 168.457 281 L 148.27 273.149 L 155.152 130.844 Q 153.187 120.837 146.879 115.414 L 139.232 109.156 L 164.383 113.911 Z " fill="rgb(157,8,5)"/></g><g><path d=" M 154.3 124.879 Q 155.134 126.353 158.276 133.725 L 164.699 145.225 L 170.341 119.035 L 162.252 123.404 L 154.3 124.879 Z " fill="rgb(111,13,2)"/><defs><filter id="Bh1IxuJVvMwiVEmbI0W7G9vfQptMWt55" x="-200%" y="-200%" width="400%" height="400%" filterUnits="objectBoundingBox" color-interpolation-filters="sRGB"><feOffset xmlns="http://www.w3.org/2000/svg" in="SourceGraphic" dx="-8" dy="14"/><feGaussianBlur xmlns="http://www.w3.org/2000/svg" stdDeviation="7.299135406826348" result="pf_100_offsetBlur"/><feComposite xmlns="http://www.w3.org/2000/svg" in="SourceGraphic" in2="pf_100_offsetBlur" result="pf_100_inverse" operator="out"/><feFlood xmlns="http://www.w3.org/2000/svg" flood-color="#512222" flood-opacity="0.4" result="pf_100_color"/><feComposite xmlns="http://www.w3.org/2000/svg" in="pf_100_color" in2="pf_100_inverse" operator="in" result="pf_100_shadow"/><feComposite xmlns="http://www.w3.org/2000/svg" in="pf_100_shadow" in2="SourceGraphic" operator="over"/></filter></defs><g filter="url(#Bh1IxuJVvMwiVEmbI0W7G9vfQptMWt55)"><path d=" M 162.252 123.404 L 170.341 119.035 L 164.699 145.225 L 163.691 126.019 L 162.252 123.404 Z " fill="rgb(111,13,2)"/></g></g></g><line x1="18.41" y1="156.5" x2="88.41" y2="276.5" vector-effect="non-scaling-stroke" stroke-width="1" stroke="rgb(0,187,255)" stroke-linejoin="miter" stroke-linecap="square" stroke-miterlimit="3"/></g></svg>