<?xml version="1.0" encoding="UTF-8" standalone="no"?><!-- Generator: Gravit.io --><svg xmlns="http://www.w3.org/2000/svg" xmlns:xlink="http://www.w3.org/1999/xlink" style="isolation:isolate" viewBox="0 0 757 165.504" width="757pt" height="165.504pt"><defs><clipPath id="_clipPath_UllZBqkTdIFXWNGmjD2qXXivhLHnEFIx"><rect width="757" height="165.504"/></clipPath></defs><g clip-path="url(#_clipPath_UllZBqkTdIFXWNGmjD2qXXivhLHnEFIx)"><g><mask id="_mask_RSVDM5X4dZMBRDrQMGZdXDLbj4MfKnda" x="-200%" y="-200%" width="400%" height="400%"><rect x="-200%" y="-200%" width="400%" height="400%" style="fill:white;"/><path d=" M 718.28 148.858 L 718.28 163.504 L 691.055 163.504 Q 674.493 159.327 674.228 143.517 Q 673.963 127.706 674.228 124.288 L 674.228 86.637 L 674.228 77.877 L 689.773 77.877 L 689.987 148.858 L 718.28 148.858 Z  M 741.959 123.323 L 754.94 123.409 L 755 163.504 L 718.28 163.504 L 718.28 148.858 L 741.959 148.749 L 741.959 123.323 Z  M 741.959 42.717 L 754.94 42.631 L 755 2.1 L 718.28 2.1 L 718.28 16.746 L 741.959 16.746 L 741.959 42.717 Z  M 718.28 16.746 L 718.28 2.1 L 691.055 2.1 Q 674.493 6.277 674.228 22.087 Q 673.963 37.898 674.228 41.316 L 674.228 77.877 L 674.101 77.877 L 689.773 77.877 L 689.987 16.746 L 718.28 16.746 Z  M 584.868 84.326 L 584.868 148.969 L 597.788 148.969 L 597.788 163.504 L 555.797 163.504 L 555.797 148.969 L 568.717 148.969 L 568.717 16.535 L 555.797 16.535 L 555.797 2 L 597.788 2 L 597.788 16.535 L 584.868 16.535 L 584.868 74.841 L 635.315 2 L 655.643 2 L 655.643 16.535 L 643.981 16.535 L 601.063 79.74 L 644.617 148.969 L 656.058 148.969 L 656.058 163.504 L 635.055 163.504 L 584.868 84.326 Z  M 524.628 163.504 L 444.597 163.504 L 444.597 148.969 L 457.284 148.969 L 457.284 87.143 L 457.284 87.143 L 457.284 72.607 L 457.284 72.607 L 457.284 16.535 L 444.597 16.535 L 444.597 2 L 457.284 2 L 457.284 2 L 473.434 2 L 524.628 2 L 524.628 2 L 537.549 2 L 537.549 2 L 537.549 2 L 537.549 16.535 L 537.549 16.535 L 537.549 42.376 L 524.628 42.376 L 524.628 16.535 L 473.434 16.535 L 473.434 72.607 L 501.126 72.607 L 501.126 57.265 L 514.047 57.265 L 514.047 72.607 L 514.047 72.607 L 514.047 87.143 L 514.047 87.143 L 514.047 102.486 L 501.126 102.486 L 501.126 87.143 L 473.434 87.143 L 473.434 148.969 L 524.628 148.969 L 524.628 123.128 L 537.549 123.128 L 537.549 148.969 L 537.549 148.969 L 537.549 163.504 L 537.549 163.504 L 537.549 163.504 L 524.628 163.504 L 524.628 163.504 Z  M 333.562 42.376 L 347.738 42.376 L 347.738 16.535 L 371.964 16.535 L 371.964 70.378 C 375.781 67.848 381.163 68.257 388.114 71.616 L 388.114 71.616 L 388.114 16.535 L 412.339 16.535 L 412.339 42.376 L 426.875 42.376 L 426.875 16.535 L 426.875 16.535 L 426.875 2 L 426.875 2 L 426.875 2 L 412.339 2 L 412.339 2 L 412.339 2 L 388.114 2 L 388.114 2 L 371.964 2 L 371.964 2 L 347.738 2 L 347.738 2 L 347.738 2 L 333.562 2 L 333.562 42.376 L 333.562 42.376 Z  M 388.114 71.616 L 388.114 148.969 L 401.034 148.969 L 401.034 163.504 L 388.114 163.504 L 388.114 163.504 L 371.964 163.504 L 371.964 163.504 L 359.043 163.504 L 359.043 148.969 L 359.043 148.969 L 359.043 148.969 L 359.043 148.969 L 371.964 148.969 L 371.964 70.378 C 375.781 67.848 381.163 68.257 388.114 71.616 L 388.114 71.616 Z  M 253.083 103.982 L 253.083 103.982 L 253.083 148.969 L 266.004 148.969 L 266.004 163.504 L 253.083 163.504 L 236.933 163.504 L 224.013 163.504 L 224.013 148.969 L 236.933 148.969 L 236.933 16.535 L 224.646 16.535 L 224.646 2 L 253.978 2 L 253.978 16.535 L 253.083 16.535 L 253.083 86.465 L 253.083 86.45 L 253.083 103.982 L 253.083 103.982 Z  M 253.978 16.515 L 253.978 2 L 298.917 2.101 Q 314.301 2.742 316.01 16.416 L 316.01 53.378 Q 315.583 62.352 308.532 66.411 L 253.083 104.007 L 253.083 85.633 L 302.122 53.378 L 302.122 16.416 L 253.978 16.515 Z  M 164.585 148.858 L 164.585 163.504 L 136.809 163.504 Q 120.247 159.327 119.982 143.517 Q 119.717 127.706 119.982 124.288 L 119.982 86.637 L 119.982 86.637 L 135.527 86.637 L 135.741 148.858 L 164.585 148.858 Z  M 164.585 16.746 L 164.585 2.1 L 136.809 2.1 Q 120.247 6.277 119.982 22.087 Q 119.717 37.898 119.982 41.316 L 119.982 78.967 L 119.982 86.637 L 135.527 86.637 L 135.741 16.746 L 164.585 16.746 Z  M 164.585 148.858 L 164.585 163.504 L 186.368 163.504 Q 202.93 159.327 203.195 143.517 Q 203.46 127.706 203.195 124.288 L 203.195 86.637 L 203.195 79.876 L 187.65 79.876 L 187.436 148.858 L 164.585 148.858 Z  M 164.585 16.746 L 164.585 2.1 L 186.368 2.1 Q 202.93 6.277 203.195 22.087 Q 203.46 37.898 203.195 41.316 L 203.195 79.876 L 203.195 79.876 L 187.65 79.876 L 187.436 16.746 L 164.585 16.746 Z  M 31.071 84.326 L 31.071 148.969 L 43.991 148.969 L 43.991 163.504 L 2 163.504 L 2 148.969 L 14.92 148.969 L 14.92 16.535 L 2 16.535 L 2 2 L 43.991 2 L 43.991 16.535 L 31.071 16.535 L 31.071 74.841 L 81.518 2 L 101.846 2 L 101.846 16.535 L 90.184 16.535 L 47.266 79.74 L 90.82 148.969 L 102.261 148.969 L 102.261 163.504 L 81.258 163.504 L 31.071 84.326 Z " fill-rule="evenodd" fill="black" stroke="none"/></mask><path d=" M 718.28 148.858 L 718.28 163.504 L 691.055 163.504 Q 674.493 159.327 674.228 143.517 Q 673.963 127.706 674.228 124.288 L 674.228 86.637 L 674.228 77.877 L 689.773 77.877 L 689.987 148.858 L 718.28 148.858 Z  M 741.959 123.323 L 754.94 123.409 L 755 163.504 L 718.28 163.504 L 718.28 148.858 L 741.959 148.749 L 741.959 123.323 Z  M 741.959 42.717 L 754.94 42.631 L 755 2.1 L 718.28 2.1 L 718.28 16.746 L 741.959 16.746 L 741.959 42.717 Z  M 718.28 16.746 L 718.28 2.1 L 691.055 2.1 Q 674.493 6.277 674.228 22.087 Q 673.963 37.898 674.228 41.316 L 674.228 77.877 L 674.101 77.877 L 689.773 77.877 L 689.987 16.746 L 718.28 16.746 Z  M 584.868 84.326 L 584.868 148.969 L 597.788 148.969 L 597.788 163.504 L 555.797 163.504 L 555.797 148.969 L 568.717 148.969 L 568.717 16.535 L 555.797 16.535 L 555.797 2 L 597.788 2 L 597.788 16.535 L 584.868 16.535 L 584.868 74.841 L 635.315 2 L 655.643 2 L 655.643 16.535 L 643.981 16.535 L 601.063 79.74 L 644.617 148.969 L 656.058 148.969 L 656.058 163.504 L 635.055 163.504 L 584.868 84.326 Z  M 524.628 163.504 L 444.597 163.504 L 444.597 148.969 L 457.284 148.969 L 457.284 87.143 L 457.284 87.143 L 457.284 72.607 L 457.284 72.607 L 457.284 16.535 L 444.597 16.535 L 444.597 2 L 457.284 2 L 457.284 2 L 473.434 2 L 524.628 2 L 524.628 2 L 537.549 2 L 537.549 2 L 537.549 2 L 537.549 16.535 L 537.549 16.535 L 537.549 42.376 L 524.628 42.376 L 524.628 16.535 L 473.434 16.535 L 473.434 72.607 L 501.126 72.607 L 501.126 57.265 L 514.047 57.265 L 514.047 72.607 L 514.047 72.607 L 514.047 87.143 L 514.047 87.143 L 514.047 102.486 L 501.126 102.486 L 501.126 87.143 L 473.434 87.143 L 473.434 148.969 L 524.628 148.969 L 524.628 123.128 L 537.549 123.128 L 537.549 148.969 L 537.549 148.969 L 537.549 163.504 L 537.549 163.504 L 537.549 163.504 L 524.628 163.504 L 524.628 163.504 Z  M 333.562 42.376 L 347.738 42.376 L 347.738 16.535 L 371.964 16.535 L 371.964 70.378 C 375.781 67.848 381.163 68.257 388.114 71.616 L 388.114 71.616 L 388.114 16.535 L 412.339 16.535 L 412.339 42.376 L 426.875 42.376 L 426.875 16.535 L 426.875 16.535 L 426.875 2 L 426.875 2 L 426.875 2 L 412.339 2 L 412.339 2 L 412.339 2 L 388.114 2 L 388.114 2 L 371.964 2 L 371.964 2 L 347.738 2 L 347.738 2 L 347.738 2 L 333.562 2 L 333.562 42.376 L 333.562 42.376 Z  M 388.114 71.616 L 388.114 148.969 L 401.034 148.969 L 401.034 163.504 L 388.114 163.504 L 388.114 163.504 L 371.964 163.504 L 371.964 163.504 L 359.043 163.504 L 359.043 148.969 L 359.043 148.969 L 359.043 148.969 L 359.043 148.969 L 371.964 148.969 L 371.964 70.378 C 375.781 67.848 381.163 68.257 388.114 71.616 L 388.114 71.616 Z  M 253.083 103.982 L 253.083 103.982 L 253.083 148.969 L 266.004 148.969 L 266.004 163.504 L 253.083 163.504 L 236.933 163.504 L 224.013 163.504 L 224.013 148.969 L 236.933 148.969 L 236.933 16.535 L 224.646 16.535 L 224.646 2 L 253.978 2 L 253.978 16.535 L 253.083 16.535 L 253.083 86.465 L 253.083 86.45 L 253.083 103.982 L 253.083 103.982 Z  M 253.978 16.515 L 253.978 2 L 298.917 2.101 Q 314.301 2.742 316.01 16.416 L 316.01 53.378 Q 315.583 62.352 308.532 66.411 L 253.083 104.007 L 253.083 85.633 L 302.122 53.378 L 302.122 16.416 L 253.978 16.515 Z  M 164.585 148.858 L 164.585 163.504 L 136.809 163.504 Q 120.247 159.327 119.982 143.517 Q 119.717 127.706 119.982 124.288 L 119.982 86.637 L 119.982 86.637 L 135.527 86.637 L 135.741 148.858 L 164.585 148.858 Z  M 164.585 16.746 L 164.585 2.1 L 136.809 2.1 Q 120.247 6.277 119.982 22.087 Q 119.717 37.898 119.982 41.316 L 119.982 78.967 L 119.982 86.637 L 135.527 86.637 L 135.741 16.746 L 164.585 16.746 Z  M 164.585 148.858 L 164.585 163.504 L 186.368 163.504 Q 202.93 159.327 203.195 143.517 Q 203.46 127.706 203.195 124.288 L 203.195 86.637 L 203.195 79.876 L 187.65 79.876 L 187.436 148.858 L 164.585 148.858 Z  M 164.585 16.746 L 164.585 2.1 L 186.368 2.1 Q 202.93 6.277 203.195 22.087 Q 203.46 37.898 203.195 41.316 L 203.195 79.876 L 203.195 79.876 L 187.65 79.876 L 187.436 16.746 L 164.585 16.746 Z  M 31.071 84.326 L 31.071 148.969 L 43.991 148.969 L 43.991 163.504 L 2 163.504 L 2 148.969 L 14.92 148.969 L 14.92 16.535 L 2 16.535 L 2 2 L 43.991 2 L 43.991 16.535 L 31.071 16.535 L 31.071 74.841 L 81.518 2 L 101.846 2 L 101.846 16.535 L 90.184 16.535 L 47.266 79.74 L 90.82 148.969 L 102.261 148.969 L 102.261 163.504 L 81.258 163.504 L 31.071 84.326 Z " fill-rule="evenodd" fill="none"/><path d=" M 718.28 148.858 L 718.28 163.504 L 691.055 163.504 Q 674.493 159.327 674.228 143.517 Q 673.963 127.706 674.228 124.288 L 674.228 86.637 L 674.228 77.877 L 689.773 77.877 L 689.987 148.858 L 718.28 148.858 Z  M 741.959 123.323 L 754.94 123.409 L 755 163.504 L 718.28 163.504 L 718.28 148.858 L 741.959 148.749 L 741.959 123.323 Z  M 741.959 42.717 L 754.94 42.631 L 755 2.1 L 718.28 2.1 L 718.28 16.746 L 741.959 16.746 L 741.959 42.717 Z  M 718.28 16.746 L 718.28 2.1 L 691.055 2.1 Q 674.493 6.277 674.228 22.087 Q 673.963 37.898 674.228 41.316 L 674.228 77.877 L 674.101 77.877 L 689.773 77.877 L 689.987 16.746 L 718.28 16.746 Z  M 584.868 84.326 L 584.868 148.969 L 597.788 148.969 L 597.788 163.504 L 555.797 163.504 L 555.797 148.969 L 568.717 148.969 L 568.717 16.535 L 555.797 16.535 L 555.797 2 L 597.788 2 L 597.788 16.535 L 584.868 16.535 L 584.868 74.841 L 635.315 2 L 655.643 2 L 655.643 16.535 L 643.981 16.535 L 601.063 79.74 L 644.617 148.969 L 656.058 148.969 L 656.058 163.504 L 635.055 163.504 L 584.868 84.326 Z  M 524.628 163.504 L 444.597 163.504 L 444.597 148.969 L 457.284 148.969 L 457.284 87.143 L 457.284 87.143 L 457.284 72.607 L 457.284 72.607 L 457.284 16.535 L 444.597 16.535 L 444.597 2 L 457.284 2 L 457.284 2 L 473.434 2 L 524.628 2 L 524.628 2 L 537.549 2 L 537.549 2 L 537.549 2 L 537.549 16.535 L 537.549 16.535 L 537.549 42.376 L 524.628 42.376 L 524.628 16.535 L 473.434 16.535 L 473.434 72.607 L 501.126 72.607 L 501.126 57.265 L 514.047 57.265 L 514.047 72.607 L 514.047 72.607 L 514.047 87.143 L 514.047 87.143 L 514.047 102.486 L 501.126 102.486 L 501.126 87.143 L 473.434 87.143 L 473.434 148.969 L 524.628 148.969 L 524.628 123.128 L 537.549 123.128 L 537.549 148.969 L 537.549 148.969 L 537.549 163.504 L 537.549 163.504 L 537.549 163.504 L 524.628 163.504 L 524.628 163.504 Z  M 333.562 42.376 L 347.738 42.376 L 347.738 16.535 L 371.964 16.535 L 371.964 70.378 C 375.781 67.848 381.163 68.257 388.114 71.616 L 388.114 71.616 L 388.114 16.535 L 412.339 16.535 L 412.339 42.376 L 426.875 42.376 L 426.875 16.535 L 426.875 16.535 L 426.875 2 L 426.875 2 L 426.875 2 L 412.339 2 L 412.339 2 L 412.339 2 L 388.114 2 L 388.114 2 L 371.964 2 L 371.964 2 L 347.738 2 L 347.738 2 L 347.738 2 L 333.562 2 L 333.562 42.376 L 333.562 42.376 Z  M 388.114 71.616 L 388.114 148.969 L 401.034 148.969 L 401.034 163.504 L 388.114 163.504 L 388.114 163.504 L 371.964 163.504 L 371.964 163.504 L 359.043 163.504 L 359.043 148.969 L 359.043 148.969 L 359.043 148.969 L 359.043 148.969 L 371.964 148.969 L 371.964 70.378 C 375.781 67.848 381.163 68.257 388.114 71.616 L 388.114 71.616 Z  M 253.083 103.982 L 253.083 103.982 L 253.083 148.969 L 266.004 148.969 L 266.004 163.504 L 253.083 163.504 L 236.933 163.504 L 224.013 163.504 L 224.013 148.969 L 236.933 148.969 L 236.933 16.535 L 224.646 16.535 L 224.646 2 L 253.978 2 L 253.978 16.535 L 253.083 16.535 L 253.083 86.465 L 253.083 86.45 L 253.083 103.982 L 253.083 103.982 Z  M 253.978 16.515 L 253.978 2 L 298.917 2.101 Q 314.301 2.742 316.01 16.416 L 316.01 53.378 Q 315.583 62.352 308.532 66.411 L 253.083 104.007 L 253.083 85.633 L 302.122 53.378 L 302.122 16.416 L 253.978 16.515 Z  M 164.585 148.858 L 164.585 163.504 L 136.809 163.504 Q 120.247 159.327 119.982 143.517 Q 119.717 127.706 119.982 124.288 L 119.982 86.637 L 119.982 86.637 L 135.527 86.637 L 135.741 148.858 L 164.585 148.858 Z  M 164.585 16.746 L 164.585 2.1 L 136.809 2.1 Q 120.247 6.277 119.982 22.087 Q 119.717 37.898 119.982 41.316 L 119.982 78.967 L 119.982 86.637 L 135.527 86.637 L 135.741 16.746 L 164.585 16.746 Z  M 164.585 148.858 L 164.585 163.504 L 186.368 163.504 Q 202.93 159.327 203.195 143.517 Q 203.46 127.706 203.195 124.288 L 203.195 86.637 L 203.195 79.876 L 187.65 79.876 L 187.436 148.858 L 164.585 148.858 Z  M 164.585 16.746 L 164.585 2.1 L 186.368 2.1 Q 202.93 6.277 203.195 22.087 Q 203.46 37.898 203.195 41.316 L 203.195 79.876 L 203.195 79.876 L 187.65 79.876 L 187.436 16.746 L 164.585 16.746 Z  M 31.071 84.326 L 31.071 148.969 L 43.991 148.969 L 43.991 163.504 L 2 163.504 L 2 148.969 L 14.92 148.969 L 14.92 16.535 L 2 16.535 L 2 2 L 43.991 2 L 43.991 16.535 L 31.071 16.535 L 31.071 74.841 L 81.518 2 L 101.846 2 L 101.846 16.535 L 90.184 16.535 L 47.266 79.74 L 90.82 148.969 L 102.261 148.969 L 102.261 163.504 L 81.258 163.504 L 31.071 84.326 Z " fill-rule="evenodd" fill="none" mask="url(#_mask_RSVDM5X4dZMBRDrQMGZdXDLbj4MfKnda)" vector-effect="non-scaling-stroke" stroke-width="4" stroke="rgb(255,255,255)" stroke-linejoin="miter" stroke-linecap="square" stroke-miterlimit="3"/></g></g></svg>