<?xml version="1.0" encoding="UTF-8" standalone="no"?><!-- Generator: Gravit.io --><svg xmlns="http://www.w3.org/2000/svg" xmlns:xlink="http://www.w3.org/1999/xlink" style="isolation:isolate" viewBox="0 0 32 32" width="32pt" height="32pt"><defs><clipPath id="_clipPath_fTV1Xg8OLcZOeuQ4DbIb9K1t0JXfZ9QE"><rect width="32" height="32"/></clipPath></defs><g clip-path="url(#_clipPath_fTV1Xg8OLcZOeuQ4DbIb9K1t0JXfZ9QE)"><g><path d=" M 7 27 L 6 25 L 1 11 L 11 14 L 12 15 L 19 13 L 20 1 L 31 16 L 29 19 L 21 28 L 7 27 Z " fill="rgb(0,134,249)"/><path d=" M 11 14 L 12 15 L 7 27 L 11 14 Z " fill="rgb(0,255,255)"/><path d=" M 31 16 L 19 13 L 19 12 L 30 15 L 31 16 Z " fill="rgb(0,57,106)"/><path d=" M 7 27 L 31 16 L 31 16 L 31 18 L 21 28 L 7 27 Z " fill="rgb(2,82,151)"/><path d=" M 15 14 L 16 14 L 19 20 L 15 14 Z " fill="rgb(149,255,255)"/><path d=" M 20.451 20.765 L 19.661 21.378 L 21 28 L 20.451 20.765 Z " fill="rgb(149,255,255)"/></g></g></svg>