<?xml version="1.0" encoding="UTF-8" standalone="no"?><!-- Generator: Gravit.io --><svg xmlns="http://www.w3.org/2000/svg" xmlns:xlink="http://www.w3.org/1999/xlink" style="isolation:isolate" viewBox="0 0 32 32" width="32pt" height="32pt"><defs><clipPath id="_clipPath_5d3T9l9QTIaIaMeKNdPEKWXyKWADCkSx"><rect width="32" height="32"/></clipPath></defs><g clip-path="url(#_clipPath_5d3T9l9QTIaIaMeKNdPEKWXyKWADCkSx)"><g><path d=" M 7 27 L 6 25 L 1 11 L 11 14 L 12 15 L 19 13 L 20 1 L 31 16 L 29 19 L 21 28 L 7 27 Z " fill="rgb(186,7,5)"/><path d=" M 11 14 L 12 15 L 7 27 L 11 14 Z " fill="rgb(204,63,63)"/><path d=" M 31 16 L 19 13 L 19 12 L 30 15 L 31 16 Z " fill="rgb(137,34,26)"/><path d=" M 7 27 L 31 16 L 31 16 L 31 18 L 21 28 L 7 27 Z " fill="rgb(160,7,5)"/></g><path d=" M 15 14 L 16 14 L 19 20 L 15 14 Z " fill="rgb(193,109,108)"/><path d=" M 20.451 20.765 L 19.661 21.378 L 21 28 L 20.451 20.765 Z " fill="rgb(193,109,108)"/></g></svg>